<?xml version="1.0" standalone="no"?>
<!DOCTYPE svg PUBLIC "-//W3C//DTD SVG 1.1//EN" "http://www.w3.org/Graphics/SVG/1.1/DTD/svg11.dtd" >
<svg xmlns="http://www.w3.org/2000/svg" xmlns:xlink="http://www.w3.org/1999/xlink" version="1.1">
<metadata></metadata>
<defs>
<font id="georgeregular" horiz-adv-x="999" >
<font-face units-per-em="2048" ascent="1638" descent="-410" />
<missing-glyph horiz-adv-x="819" />
<glyph horiz-adv-x="0" />
<glyph horiz-adv-x="0" />
<glyph horiz-adv-x="682" />
<glyph unicode="&#xa;" horiz-adv-x="0" />
<glyph unicode="&#xd;" horiz-adv-x="681" />
<glyph unicode=" "  horiz-adv-x="819" />
<glyph unicode="&#x09;" horiz-adv-x="819" />
<glyph unicode="&#xa0;" horiz-adv-x="819" />
<glyph unicode="!" horiz-adv-x="419" d="M102 1503h215l-38 -1224h-138zM115 70q0 39 27.5 67.5t67.5 28.5t68.5 -28.5t28.5 -67.5t-28.5 -68t-68.5 -29t-67.5 29t-27.5 68z" />
<glyph unicode="&#x22;" horiz-adv-x="718" d="M102 977v364h160v-364h-160zM455 977v364h161v-364h-161z" />
<glyph unicode="#" horiz-adv-x="1370" d="M102 352v162h244l41 315h-235v162h256l57 441h162l-58 -441h303l58 441h162l-58 -441h234v-162h-254l-41 -315h246v-162h-267l-47 -356h-162l48 356h-304l-47 -356h-161l47 356h-224zM508 514h303l41 315h-303z" />
<glyph unicode="$" horiz-adv-x="1200" d="M102 348l160 17q14 -139 123 -227.5t248 -74t228 123t75 247.5q-6 61 -30.5 111.5t-52.5 80t-79 57.5t-84 40t-94 35q-90 29 -127 49q-102 53 -164.5 127t-77 160t16.5 184q23 61 63.5 111.5t95 82t117.5 46.5v165h160v-161q2 -2 15.5 -3t19.5 -3q45 -12 91 -40t91 -72 t73.5 -111.5t30.5 -143.5l-159 -4q-2 41 -16.5 76.5t-34 58.5t-44 41t-42 26.5t-29.5 12.5q-94 23 -173 -15t-106 -118q-59 -172 146 -279q27 -12 104 -39q49 -16 77 -26.5t78 -34t81.5 -45t72.5 -57t66 -75.5t45 -97.5t29 -122.5q20 -197 -101 -352.5t-315 -188.5v-150 h-160v148q-166 27 -282.5 148.5t-135.5 291.5z" />
<glyph unicode="%" horiz-adv-x="1675" d="M102 1150q0 116 82 199t199 83t199 -82t82 -199t-82 -199t-199 -82t-199 82t-82 198zM262 1150q0 -50 36 -85t85 -35t85 35t36 85t-36 86t-85 36t-85 -36t-36 -86zM463 -4l575 1436h172l-575 -1436h-172zM1011 291q5 117 91 194q90 82 203 74q117 -6 194 -92 q78 -86 74 -201q-6 -113 -88 -190.5t-193 -77.5h-12q-117 4 -195.5 90t-73.5 203zM1171 283.5q-2 -50.5 32 -87t83 -38.5q49 0 86 32.5t39 81.5t-30.5 86t-84.5 39l-2 1l-2 1q-47 0 -82 -32q-37 -33 -39 -83.5z" />
<glyph unicode="&#x26;" horiz-adv-x="1396" d="M102 352v39q0 123 63.5 227.5t172.5 165.5q-123 106 -123 260v27q0 145 108.5 248.5t260.5 103.5h24q111 0 203 -58t135 -155q31 -68 31 -139h-162q0 39 -14 74q-25 53 -77 85t-116 32h-24q-86 0 -146.5 -55.5t-60.5 -135.5v-27q0 -80 60.5 -135t146.5 -55h24v-162h-20 q-135 0 -230.5 -88t-95.5 -213v-39q0 -125 95.5 -213t230.5 -88h16q135 0 230.5 88t95.5 213v47h-205v160h569v-160h-204v-47q0 -125 -66 -231.5t-177.5 -168t-242.5 -61.5h-16q-201 0 -343.5 135.5t-142.5 325.5z" />
<glyph unicode="'" horiz-adv-x="364" d="M102 977v364h160v-364h-160z" />
<glyph unicode="(" horiz-adv-x="528" d="M102 715q0 371 148 717h176q-164 -344 -164 -717q0 -375 164 -719h-176q-147 346 -148 719z" />
<glyph unicode=")" horiz-adv-x="528" d="M102 -4q164 344 164 719q0 373 -164 717h177q147 -346 147 -717q0 -373 -147 -719h-177z" />
<glyph unicode="*" horiz-adv-x="813" d="M102 1165l56 150l168 -62v181h159v-199l197 35l29 -160l-176 -31l90 -157l-140 -80l-90 157l-119 -139l-122 103l116 141z" />
<glyph unicode="+" d="M102 635v160h318v317h160v-317h317v-160h-317v-318h-160v318h-318z" />
<glyph unicode="," horiz-adv-x="364" d="M102 -92v258h160l-35 -258h-125z" />
<glyph unicode="-" d="M102 635v160h795v-160h-795z" />
<glyph unicode="." horiz-adv-x="397" d="M102 70q0 39 29 67.5t69 28.5t67.5 -28.5t27.5 -67.5t-27.5 -68t-68.5 -29q-27 0 -48.5 13.5t-35 35t-13.5 48.5z" />
<glyph unicode="/" horiz-adv-x="952" d="M102 -4l576 1436h172l-576 -1436h-172z" />
<glyph unicode="0" horiz-adv-x="1144" d="M102 471v481q0 195 138.5 333t332 138t331.5 -138t138 -333v-481q0 -195 -138 -332t-331.5 -137t-332 137t-138.5 332zM262 471q0 -127 91 -218t219 -91t219.5 91t91.5 218v481q0 84 -42 156t-113 113t-155 41q-129 0 -220 -90.5t-91 -219.5v-481z" />
<glyph unicode="1" horiz-adv-x="604" d="M102 1161v168q76 25 136 60l161 92v-1485h-161v1212q-51 -23 -109 -39z" />
<glyph unicode="2" horiz-adv-x="1077" d="M102 885v102q0 180 128 308t308.5 128t308.5 -128t128 -308v-26q0 -49 -17 -119q-29 -115 -489 -676h471v-160h-813l111 131q209 250 378.5 472t186.5 272q12 49 12 80v26q0 113 -81 194t-195.5 81t-195.5 -81t-81 -194v-102h-160z" />
<glyph unicode="3" horiz-adv-x="1132" d="M102 399l160 23q14 -111 100.5 -185.5t196.5 -74.5q125 0 214 88t89 213t-89 214t-214 89h-147l323 496h-553v161h848l-336 -518q143 -43 235.5 -165t92.5 -277q0 -190 -135 -325.5t-328 -135.5q-172 0 -302 113.5t-155 283.5z" />
<glyph unicode="4" horiz-adv-x="1140" d="M102 377l461 1055h174l-389 -895h373v434h162v-434h155v-160h-155v-381h-162v381h-619z" />
<glyph unicode="5" horiz-adv-x="1124" d="M102 399l160 23q18 -131 127 -207t242 -45q84 18 145.5 81.5t77.5 147.5q27 125 -45 213q-86 106 -250 107h-391l68 704h706v-161h-561l-37 -383h215q115 0 213 -43t162 -121q119 -147 78 -348q-27 -131 -121 -227.5t-223 -125.5q-53 -12 -109 -12q-143 0 -262 80 q-78 55 -129 138t-66 179z" />
<glyph unicode="6" horiz-adv-x="1107" d="M102 410v307q0 193 94.5 354.5t257 256.5t353.5 95v-161q-203 0 -355.5 -134.5t-181.5 -334.5q125 100 279 100q190 0 323.5 -130t133.5 -317q0 -184 -131.5 -314t-315.5 -130h-10q-174 0 -301 118t-142 290h-4zM262 446q0 -117 84 -200.5t203 -83.5h10q119 0 203 84 t84 201.5t-84 200.5t-203 83q-125 0 -211 -83t-86 -202z" />
<glyph unicode="7" horiz-adv-x="1110" d="M102 1262v161h906l-303 -606q-190 -377 -191 -801h-160q0 461 207 873l187 373h-646z" />
<glyph unicode="8" horiz-adv-x="1095" d="M102 422q0 72 22.5 137.5t63.5 118.5t99 92q-135 111 -135 283q0 152 108.5 260t259.5 108h55q154 0 262.5 -108.5t108.5 -259.5q0 -172 -135 -283q84 -59 133 -150.5t49 -197.5q0 -174 -122.5 -298t-297.5 -124h-49q-174 0 -298 124t-124 298zM262 421.5 q0 -108.5 77 -184t185 -75.5h49q106 0 183.5 75.5t77.5 184t-77 184.5t-184 76h-49q-109 0 -185.5 -76t-76.5 -184.5zM311 1053q0 -86 61.5 -147.5t147.5 -61.5h55q86 0 147.5 61.5t61.5 147.5t-61 147.5t-148 61.5h-55q-86 0 -147.5 -61.5t-61.5 -147.5z" />
<glyph unicode="9" horiz-adv-x="1107" d="M102 977q0 184 131.5 315t315.5 131h10q174 0 301 -118.5t141 -288.5h5v-309q0 -190 -94.5 -353.5t-257 -257.5t-353.5 -94v160q203 0 355.5 135t181.5 334q-125 -99 -279 -99q-190 0 -323.5 130.5t-133.5 314.5zM262 978q0 -118 84 -202t203 -84q125 0 211 83t86 202 t-84 202t-203 83h-10q-119 0 -203 -83t-84 -201z" />
<glyph unicode=":" horiz-adv-x="397" d="M102 70q0 39 29 67.5t69 28.5t67.5 -28.5t27.5 -67.5t-27.5 -68t-68.5 -29q-27 0 -48.5 13.5t-35 35t-13.5 48.5zM102 629q0 39 29 67.5t69 28.5t67.5 -28.5t27.5 -68.5t-27.5 -68t-68.5 -28q-27 0 -48.5 12.5t-35 35t-13.5 49.5z" />
<glyph unicode=";" horiz-adv-x="397" d="M102 629q0 39 29 67.5t69 28.5t67.5 -28.5t27.5 -68.5t-27.5 -68t-68.5 -28q-27 0 -48.5 12.5t-35 35t-13.5 49.5zM119 -92v258h160l-35 -258h-125z" />
<glyph unicode="&#x3c;" horiz-adv-x="899" d="M102 715l695 502v-199l-420 -303l420 -305v-197z" />
<glyph unicode="=" d="M102 416v159h795v-159h-795zM102 846v162h795v-162h-795z" />
<glyph unicode="&#x3e;" horiz-adv-x="899" d="M102 211v199l422 305l-422 305v197l695 -502z" />
<glyph unicode="?" horiz-adv-x="983" d="M102 1073q8 88 55.5 164t123.5 123q158 102 340 41q133 -45 206.5 -174t46.5 -273q-27 -131 -124 -213q-84 -70 -130.5 -173t-46.5 -224v-65h-161v65q0 158 61.5 294t173.5 228q55 45 70 119q14 84 -29 161t-119 103q-108 37 -202 -22q-92 -61 -105 -170zM395 71 q0 40 28 67.5t67.5 27.5t68.5 -27.5t29 -67.5t-29 -69t-68.5 -29t-67.5 29t-28 69z" />
<glyph unicode="@" horiz-adv-x="2260" d="M104 573q10 231 120 439.5t296 353.5q184 145 409.5 199.5t452.5 9.5q301 -59 513 -283.5t253 -529.5q18 -135 2 -268q-14 -127 -86.5 -216.5t-169 -126t-202.5 -28.5q-102 10 -192.5 65.5t-137.5 151.5q-66 -72 -152 -112t-178 -40h-14q-166 6 -264 127 q-100 125 -68 295q29 158 156 263.5t284 105.5h15q111 -4 198 -66l4 93l160 -9l-22 -460q-6 -119 61.5 -182.5t163.5 -71.5q100 -8 185 50t100 179q14 115 -2 227q-16 127 -71.5 241t-138.5 202t-193.5 150.5t-233.5 84.5q-193 39 -384.5 -8t-349.5 -168 q-160 -125 -252 -302t-102 -374q-8 -174 49.5 -331.5t173 -279.5t269 -186.5t327.5 -64.5v-162q-207 0 -391 79t-321 224q-139 145 -208 334t-59 395zM844 580q-18 -96 35 -164q51 -63 143 -68h5h3q98 0 182.5 71t102.5 169q18 96 -35 164q-53 63 -145 67h-3h-6 q-98 0 -181 -70.5t-101 -168.5z" />
<glyph unicode="A" horiz-adv-x="1423" d="M102 0l617 1438h2l600 -1438h-174l-139 334h-588l-144 -334h-174zM489 494h451l-221 532z" />
<glyph unicode="B" horiz-adv-x="1202" d="M102 0v1427h516q80 0 154 -31.5t126 -85t84 -127t32 -153.5q0 -168 -121 -285q94 -51 150.5 -144t56.5 -204q0 -164 -116 -280.5t-277 -116.5h-605zM262 162h445q96 0 164.5 68.5t68.5 167t-68.5 167t-164.5 68.5h-445v-471zM262 799h356q98 0 167 68.5t69 165.5 t-68.5 166t-167.5 69h-356v-469z" />
<glyph unicode="C" horiz-adv-x="1411" d="M102 718.5q0 192.5 95.5 355.5t258 258t355.5 95q291 0 498 -202l-113 -115q-162 158 -385 158q-227 0 -388 -161t-161 -387t161 -387t388 -161q193 0 344 121l100 -125q-194 -158 -444 -158q-193 0 -355.5 95.5t-258 258t-95.5 355z" />
<glyph unicode="D" horiz-adv-x="1202" d="M102 10v1417h289q193 0 356.5 -95t258 -258t94.5 -355.5t-94.5 -355t-258 -258t-356.5 -95.5h-289zM262 172h129q227 0 388 161t161 387t-161 387t-388 161h-129v-1096z" />
<glyph unicode="E" horiz-adv-x="983" d="M102 10v1417h779v-159h-619v-563h379v-160h-379v-373h619v-162h-779z" />
<glyph unicode="F" horiz-adv-x="983" d="M102 0v1427h779v-159h-619v-563h379v-160h-379v-545h-160z" />
<glyph unicode="G" horiz-adv-x="1622" d="M102 718.5q0 192.5 95.5 355.5t258 258t355.5 95q291 0 498 -202l-113 -115q-162 158 -385 158q-227 0 -388 -161t-161 -387t161 -387t388 -161q205 0 358.5 134t184.5 333h-543v160h709v-80q0 -193 -95.5 -355.5t-258 -258t-355.5 -95.5t-355.5 95.5t-258 258t-95.5 355 z" />
<glyph unicode="H" horiz-adv-x="1202" d="M102 0v1438h160v-733h678v733h160v-1438h-160v545h-678v-545h-160z" />
<glyph unicode="I" horiz-adv-x="364" d="M102 0v1438h160v-1438h-160z" />
<glyph unicode="J" horiz-adv-x="1038" d="M102 297l152 53q29 -80 98.5 -129t155.5 -49q111 0 189.5 79t78.5 189v998h160v-998q0 -178 -126 -304t-302 -126q-137 0 -249 79t-157 208z" />
<glyph unicode="K" horiz-adv-x="1224" d="M102 0v1438h160v-719l643 719h217l-633 -707l629 -731h-211l-526 610l-119 -131v-479h-160z" />
<glyph unicode="L" horiz-adv-x="983" d="M102 0v1438h160v-1278h619v-160h-779z" />
<glyph unicode="M" horiz-adv-x="1341" d="M102 0v1456l19 -18l551 -598l549 598l18 18v-1456h-160v1047l-407 -445l-410 445v-1047h-160z" />
<glyph unicode="N" horiz-adv-x="1202" d="M102 0v1477l33 -39l805 -1016v1018h160v-1479l-31 39l-807 1016v-1016h-160z" />
<glyph unicode="O" horiz-adv-x="1622" d="M102 719q0 193 95.5 355.5t258 257.5t355.5 95q143 0 274.5 -56t226.5 -150.5t151.5 -226.5t56.5 -275q0 -193 -95.5 -355.5t-258 -258t-355.5 -95.5q-143 0 -274 56.5t-226.5 151.5t-152 226t-56.5 275zM262 720q0 -226 161 -387t388 -161t387 161t160 387t-160 387 t-387 161t-388 -161t-161 -387z" />
<glyph unicode="P" horiz-adv-x="1062" d="M102 0v1427h465q162 0 278 -115.5t116 -277.5q0 -109 -52.5 -199t-143.5 -143t-198 -53h-305v-639h-160zM262 799h305q96 0 165 68.5t69 165.5t-68.5 166t-165.5 69h-305v-469z" />
<glyph unicode="Q" horiz-adv-x="1622" d="M102 718.5q0 192.5 95.5 355.5t258 258t355.5 95q143 0 274.5 -56t226.5 -150.5t151.5 -226.5t56.5 -275q0 -145 -56.5 -274.5t-154.5 -227.5q86 -100 147 -217h-186q-41 66 -88 119q-172 -109 -371 -109q-193 0 -355.5 95.5t-258 258t-95.5 355zM262 719q0 -55 14 -115 q92 12 164 12q209 0 403.5 -74.5t352.5 -211.5q162 162 162 389t-160 388t-387 161t-388 -161t-161 -388zM336 451q72 -127 198.5 -203t276.5 -76q129 0 252 64q-270 221 -623 221q-53 0 -104 -6z" />
<glyph unicode="R" horiz-adv-x="1146" d="M102 0v1427h465q162 0 278 -115.5t116 -277.5q0 -137 -83 -241.5t-210 -139.5l376 -653h-186l-369 639h-227v-639h-160zM262 799h305q96 0 165 68.5t69 165.5t-68.5 166t-165.5 69h-305v-469z" />
<glyph unicode="S" horiz-adv-x="1157" d="M102 334l160 16q14 -131 116 -213q87 -70 195 -70q18 -1 36 1q130 14 213 116q71 87 71 195q0 18 -2 37q-6 68 -30.5 117t-72 82.5t-93.5 55t-124 46.5q-86 31 -118 47q-151 78 -207 196q-31 64 -30 133q0 60 22 124q27 80 87 137t142 84q60 19 120 19q50 0 101 -13 l21 -6q94 -33 173 -123t81 -221l-160 -4q0 23 -5 42t-12.5 35.5t-17.5 30.5t-20.5 26.5t-22.5 21.5t-23.5 16.5t-21.5 13.5t-17.5 8t-13.5 4q-32 8 -63 8q-48 0 -94 -20q-76 -32 -103 -111q-12 -36 -12 -68q0 -114 149 -190q25 -12 99 -37q47 -16 72.5 -25t73.5 -31.5 t78 -43t69.5 -55.5t63.5 -73t43 -92t26 -118q3 -28 3 -54q0 -164 -106 -296q-35 -43 -90 -82q-106 -78 -231 -90q-25 -4 -52 -4q-154 0 -280 94q-2 2 -8.5 6t-10.5 6q-74 59 -118.5 142.5t-55.5 179.5z" />
<glyph unicode="T" horiz-adv-x="1042" d="M102 1268v159h838v-159h-338v-1268h-162v1268h-338z" />
<glyph unicode="U" horiz-adv-x="1202" d="M102 510v930h160v-930q0 -139 99.5 -238.5t239.5 -99.5t239.5 99.5t99.5 238.5v930h160v-930q0 -207 -146.5 -353.5t-352.5 -146.5t-352.5 146.5t-146.5 353.5z" />
<glyph unicode="V" horiz-adv-x="1419" d="M102 1438h174l437 -1043l430 1043h174l-594 -1438l-10 -23l-8 23z" />
<glyph unicode="W" horiz-adv-x="1939" d="M102 1438h174l439 -1041l176 443l-252 598h174l438 -1041l412 1041h174l-571 -1438l-11 -27l-12 27l-264 629l-250 -629l-10 -27l-12 27z" />
<glyph unicode="X" horiz-adv-x="1349" d="M102 0l478 719l-476 719h193l379 -574l379 574h192l-475 -719l475 -719h-192l-379 573l-381 -573h-193z" />
<glyph unicode="Y" horiz-adv-x="1376" d="M102 1438h189l397 -658l399 658h187l-506 -836v-602h-160v602z" />
<glyph unicode="Z" horiz-adv-x="1198" d="M102 0l717 1268h-708v159h985l-717 -1267h708v-160h-985z" />
<glyph unicode="[" horiz-adv-x="544" d="M102 -86v1599h340v-161h-180v-1276h180v-162h-340z" />
<glyph unicode="\" horiz-adv-x="952" d="M102 1432h172l576 -1436h-172z" />
<glyph unicode="]" horiz-adv-x="544" d="M102 76h181v1276h-181v161h340v-1599h-340v162z" />
<glyph unicode="^" horiz-adv-x="921" d="M102 963l359 499l358 -499h-172l-186 260l-187 -260h-172z" />
<glyph unicode="_" horiz-adv-x="1077" d="M102 6v160h873v-160h-873z" />
<glyph unicode="`" horiz-adv-x="409" d="M102 1384l97 41l108 -297l-63 -24z" />
<glyph unicode="a" horiz-adv-x="1028" d="M102 283q0 145 105.5 229t288.5 84q147 0 270 -53v22q0 61 -30.5 113.5t-84 83.5t-114.5 31q-74 0 -130.5 -12.5t-121.5 -55.5l-86 135q88 57 167.5 74.5t170.5 17.5q162 0 275.5 -113.5t113.5 -273.5v-565h-160v113q-140 -117 -324 -117q-150 0 -245 80t-95 207z M262 283q0 -43 24.5 -72t61.5 -39t57.5 -13t36.5 -3q96 0 186.5 53t123.5 160q-20 14 -58.5 29.5t-91.5 26.5t-106 11q-45 0 -86 -8q-51 -10 -84 -29.5t-45.5 -45t-15.5 -39t-3 -31.5z" />
<glyph unicode="b" horiz-adv-x="1134" d="M102 0v1511h160v-673q132 114 302 114h3q193 0 329 -136t136 -328.5t-136 -328.5t-329 -136h-3q-170 0 -302 116v-139h-160zM262 488q0 -126 90 -215t215 -89t215 89t90 215t-89 215.5t-215 89.5t-216 -89.5t-90 -215.5z" />
<glyph unicode="c" d="M102 487q0 193 138 330q131 131 327.5 131t329.5 -131l-115 -115q-86 88 -215 88q-1 0 -1 1q-128 0 -214 -89q-90 -88 -90 -214t90 -216q86 -86 215 -86t215 86l115 -112q-137 -137 -329.5 -137t-327.5 137q-137 135 -138 327z" />
<glyph unicode="d" horiz-adv-x="1134" d="M102 487.5q0 192.5 136.5 328.5t328.5 136q172 0 305 -114v673h160v-1511h-160v139q-133 -116 -305 -116q-193 0 -329 136t-136 328.5zM262 488q0 -126 90 -215t215 -89t215 89t90 215t-89 215.5t-215 89.5t-216 -89.5t-90 -215.5z" />
<glyph unicode="e" horiz-adv-x="1134" d="M121 354q-19 68 -19 134q0 114 58 222q92 170 278 224q68 20 134 20q113 0 221 -59q104 -55 168 -156q33 -51 55 -121l16 -79l-723 -211q43 -72 113 -111q69 -37 143 -37q43 0 89 14q122 36 184 146l141 -78q-94 -168 -279 -223q-66 -18 -133 -19q-117 0 -221 58 q-128 70 -194 203zM262 481l567 166l-1 2t-3 4q-41 63 -110 103q-68 37 -146 37q-43 0 -86 -13q-123 -36 -182 -147q-39 -72 -39 -152z" />
<glyph unicode="f" horiz-adv-x="976" d="M102 793v159h183v254q0 137 96 232.5t231 95.5q164 0 262 -129l-129 -98q-48 67 -131 67h-2q-70 0 -118 -49t-48 -119v-254h287v-159h-287v-793h-161v793h-183z" />
<glyph unicode="g" horiz-adv-x="1134" d="M102 487.5q0 192.5 136.5 328.5t328.5 136q172 0 305 -114v129h160v-965h-2q-4 -207 -151.5 -351.5t-354.5 -144.5q-172 0 -309 107l98 127q92 -74 211 -74q143 0 245.5 102.5t102.5 245.5v125q-133 -116 -305 -116q-193 0 -329 136t-136 328.5zM262 488q0 -126 90 -215 t215 -89t215 89t90 215t-90 215.5t-216 89.5t-215 -89.5t-89 -215.5z" />
<glyph unicode="h" d="M102 0v1511h160v-639q109 80 238 80q164 0 280.5 -116.5t116.5 -280.5v-555h-160v555q0 98 -69.5 168t-167.5 70q-63 0 -118.5 -32t-87.5 -86t-32 -120v-555h-160z" />
<glyph unicode="i" horiz-adv-x="413" d="M102 1187q0 44 31 74.5t74 30.5t73.5 -30.5t30.5 -74.5t-30.5 -75t-73.5 -31t-74 31t-31 75zM127 0v967h160v-967h-160z" />
<glyph unicode="j" horiz-adv-x="669" d="M102 -303q57 0 108.5 27.5t89.5 73.5t59.5 110.5t21.5 134.5v924h162v-936h-2q-4 -207 -132 -351.5t-307 -144.5v162zM356 1186q0 29 14.5 53.5t39 38.5t51.5 14q45 0 75.5 -30.5t30.5 -74.5t-30.5 -75t-74.5 -31t-75 31t-31 74z" />
<glyph unicode="k" horiz-adv-x="1069" d="M102 0v1511h160v-1079l467 535h213l-416 -480l441 -487h-217l-330 367l-158 -181v-186h-160z" />
<glyph unicode="l" horiz-adv-x="364" d="M102 0v1511h160v-1511h-160z" />
<glyph unicode="m" horiz-adv-x="1554" d="M102 0v967h160v-86q97 71 214 71h3q90 0 168 -41t131 -114q53 74 130 114.5t167 40.5q156 0 266.5 -116.5t110.5 -280.5v-555h-160v555q0 98 -63.5 168t-153.5 70t-153.5 -70t-63.5 -168v-555h-160v555q0 98 -64.5 168t-153.5 70t-153.5 -70t-64.5 -168v-555h-160z" />
<glyph unicode="n" d="M102 0v967h160v-95q109 80 238 80q164 0 280.5 -116.5t116.5 -280.5v-555h-160v555q0 98 -69.5 168t-167.5 70q-63 0 -118.5 -32t-87.5 -86t-32 -120v-555h-160z" />
<glyph unicode="o" horiz-adv-x="1134" d="M102 487.5q0 192.5 136.5 328.5t329 136t328.5 -136t136 -328.5t-136 -328.5t-328.5 -136t-329 136t-136.5 328.5zM262 488q0 -126 90 -215t215 -89t215 89t90 215t-89 215.5t-215 89.5t-216 -89.5t-90 -215.5z" />
<glyph unicode="p" horiz-adv-x="1134" d="M102 -471v1438h160v-127q132 116 302 116h3q193 0 329 -137t136 -328.5t-136 -328.5t-329 -137h-3q-170 0 -302 116v-612h-160zM262 490.5q0 -125.5 90 -215t216 -89.5t215 89.5t89 216.5q0 61 -24.5 117.5t-65.5 97.5t-97.5 64.5t-117.5 23.5q-125 0 -215 -89.5 t-90 -215z" />
<glyph unicode="q" horiz-adv-x="1134" d="M102 490.5q0 191.5 136.5 328.5t328.5 137q172 0 305 -116v127h160v-1438h-160v612q-133 -116 -305 -116q-193 0 -329 137t-136 328.5zM262 490.5q0 -125.5 90 -215t215 -89.5t215 89.5t90 216.5q0 82 -40.5 151.5t-111.5 110.5t-153 41q-125 0 -215 -89.5t-90 -215z" />
<glyph unicode="r" horiz-adv-x="720" d="M102 0v967h160v-95q109 80 238 80q59 0 118 -16v-178q-59 35 -118 35q-63 0 -118.5 -32t-87.5 -86t-32 -120v-555h-160z" />
<glyph unicode="s" horiz-adv-x="919" d="M102 285l160 20q8 -59 72 -99q54 -33 119 -33q13 0 26 1q98 8 150 72q27 34 27 70q0 8 -1 16q-4 35 -26.5 57.5t-60.5 35.5t-107 28q-76 16 -107 28q-108 47 -152 139q-22 47 -22 95q0 47 21 96q35 88 131 129q62 26 129 26q38 0 78 -8q76 -14 143.5 -76.5t71.5 -156.5 l-162 -4q0 25 -19.5 44t-37 27.5t-27.5 10.5q-22 4 -42 4q-30 1 -58 -9q-46 -16 -60 -48q-8 -19 -8 -36q0 -52 76 -83q18 -8 78 -21q47 -10 74.5 -17t76.5 -27.5t79 -45t56.5 -68.5t34.5 -100q2 -18 2 -35q0 -93 -63 -172q-94 -117 -260 -131q-17 -2 -35 -2 q-135 0 -238.5 79t-118.5 194z" />
<glyph unicode="t" horiz-adv-x="835" d="M102 793v159h183v346l161 109v-455h287v-159h-287v-439q0 -70 48.5 -119t117.5 -49v-159q-135 0 -231 96t-96 231v439h-183z" />
<glyph unicode="u" d="M102 412v555h160v-555q0 -98 69.5 -168t168 -70t168 69.5t69.5 168.5v546h160v-958h-160v94q-106 -80 -237 -80q-164 0 -281 117t-117 281z" />
<glyph unicode="v" horiz-adv-x="1140" d="M102 958h179l292 -591l287 591h178l-465 -958z" />
<glyph unicode="w" horiz-adv-x="1599" d="M102 958h181l292 -591l130 274l-158 317h178l305 -612l289 612h178l-463 -981l-237 480l-217 -457z" />
<glyph unicode="x" horiz-adv-x="1030" d="M102 958h193l219 -333l221 333h193l-318 -479l316 -473h-193l-219 328l-217 -328h-193l314 473z" />
<glyph unicode="y" horiz-adv-x="1140" d="M102 958h179l292 -591l287 591h178l-665 -1370l-31 -67h-180l321 661z" />
<glyph unicode="z" horiz-adv-x="974" d="M102 2l482 805h-478v160h760l-483 -803h489v-162h-770z" />
<glyph unicode="{" horiz-adv-x="745" d="M102 719l56 53q143 137 143 336v63q0 141 100.5 241.5t241.5 100.5v-161q-76 0 -128 -52.5t-52 -128.5v-63q0 -223 -144 -397q143 -195 144 -437v-18q0 -76 52 -128t128 -52v-162q-141 0 -241.5 100.5t-100.5 241.5v18q0 221 -147 388z" />
<glyph unicode="|" horiz-adv-x="364" d="M102 -193v1625h160v-1625h-160z" />
<glyph unicode="}" horiz-adv-x="745" d="M102 76q74 0 127.5 52t53.5 128v18q0 242 141 437q-141 174 -141 397v63q0 76 -53.5 128.5t-127.5 52.5v161q141 0 240.5 -100t99.5 -242v-63q0 -199 144 -336l57 -53l-53 -57q-147 -166 -148 -388v-18q0 -141 -99 -241.5t-241 -98.5v160z" />
<glyph unicode="~" horiz-adv-x="958" d="M102 610v176q203 80 398 11l24 -11q80 -29 168 -20.5t164 49.5v-176q-98 -35 -197 -35q-98 0 -190 33q-14 4 -29 10q-74 29 -168 19.5t-170 -56.5z" />
<glyph unicode="&#xa1;" horiz-adv-x="397" d="M102 715q0 39 29 67.5t68 28.5q27 0 49 -13.5t34.5 -35t12.5 -47.5q0 -39 -27.5 -68t-67.5 -29t-69 29t-29 68zM119 -649l12 1155h135l13 -1155h-160z" />
<glyph unicode="&#xa2;" d="M102 471q0 193 138 328q98 100 245 125v166h162v-166q150 -23 250 -123l-115 -115q-86 86 -215 86t-215 -86q-90 -88 -90 -215t90 -215q86 -86 215 -86t215 86l115 -115q-104 -102 -250 -127v-161h-162v161q-143 25 -245 127q-137 137 -138 330z" />
<glyph unicode="&#xa3;" horiz-adv-x="1073" d="M102 662v104h140q-6 78 -27 199q-29 180 90 319q117 137 297 137h2q162 0 279 -112l-113 -115q-70 68 -166 68h-2q-106 0 -174 -82q-72 -82 -53 -189q23 -135 26 -225h326v-104h-326q-14 -164 -79 -496h649v-160h-844l18 96q78 369 95 560h-138z" />
<glyph unicode="&#xa4;" horiz-adv-x="892" d="M102 483l115 115q-59 117 0 233l-115 115l113 113l115 -115q117 59 233 0l115 115l113 -113l-115 -115q59 -117 0 -233l115 -115l-113 -112l-115 114q-57 -29 -116.5 -28.5t-116.5 28.5l-115 -114zM348 714.5q0 -40.5 29 -69.5t69.5 -29t69.5 29t29 70t-29 69.5 t-69.5 28.5t-69.5 -29t-29 -69.5z" />
<glyph unicode="&#xa5;" horiz-adv-x="1378" d="M102 1434h189l397 -660l399 660h189l-461 -762h225v-105h-270v-229h283v-107h-283v-235h-162v235h-282v107h282v229h-293v105h248z" />
<glyph unicode="&#xa7;" horiz-adv-x="909" d="M102 154l160 4q2 -78 51 -124t86 -57q92 -22 162 21q53 33 74 90q51 152 -117 227q-53 27 -178 70l-21 10q-137 72 -189 182.5t-7 239.5q14 43 41 82q-98 131 -41 297q43 127 165 188.5t259 26.5q92 -23 175 -111t85 -221l-160 -2q-2 33 -14 62.5t-28.5 49t-37 35 t-35 22.5t-24.5 9q-72 18 -140.5 -10t-93.5 -100q-49 -141 121 -230q111 -39 191 -73q139 -66 192 -178.5t8 -247.5q-14 -43 -38 -78q96 -131 38 -301q-39 -115 -143 -176q-82 -51 -186 -51q-47 0 -97 12q-90 23 -173 110.5t-85 221.5zM274 766q-49 -141 121 -229 q111 -37 191 -74q6 -4 37 -21q10 20 12 25q51 152 -117 227q-57 27 -178 70l-21 10q-6 2 -11 5t-11 7.5t-10 6.5q-10 -20 -13 -27z" />
<glyph unicode="&#xa8;" horiz-adv-x="780" d="M102 1342.5q0 39.5 29 68.5t69 29t67.5 -29t27.5 -68.5t-27.5 -68.5t-67.5 -29t-69 29t-29 68.5zM485 1342.5q0 39.5 28 68.5t68 29t68.5 -29t28.5 -68.5t-28.5 -68.5t-68.5 -29t-68 29t-28 68.5z" />
<glyph unicode="&#xa9;" horiz-adv-x="1622" d="M102 715q0 193 95.5 355.5t258 257.5t355.5 95t355.5 -95t258 -258t95.5 -355.5t-95.5 -355t-258 -258t-355.5 -95.5q-143 0 -274 56.5t-226.5 150.5t-152 226t-56.5 276zM262 713.5q0 -226.5 161 -387t388 -160.5t387 160.5t160 387t-160 387.5t-387 161t-388 -161 t-161 -387.5zM438 714.5q0 151.5 108.5 260t260.5 108.5q59 0 114.5 -18t102.5 -52t80 -81l-129 -94q-62 84 -168 84q-86 0 -146.5 -60.5t-60.5 -146.5t60.5 -147.5t146.5 -61.5q76 0 135 49l102 -123q-102 -86 -237 -86q-152 0 -260.5 108.5t-108.5 260z" />
<glyph unicode="&#xab;" horiz-adv-x="1169" d="M102 715l367 375l115 -113l-256 -262l256 -262l-115 -113zM586 715l368 375l113 -113l-256 -262l256 -262l-113 -113z" />
<glyph unicode="&#xad;" horiz-adv-x="0" />
<glyph unicode="&#xae;" horiz-adv-x="1622" d="M102 715q0 193 95.5 355.5t258 257.5t355.5 95t355.5 -95t258 -258t95.5 -355.5t-95.5 -355t-258 -258t-355.5 -95.5q-143 0 -274 56.5t-226.5 150.5t-152 226t-56.5 276zM262 713.5q0 -226.5 161 -387t388 -160.5q63 0 139 20q121 33 217 115q88 78 139.5 184.5 t51.5 229.5q0 225 -160 386t-387 161t-388 -161t-161 -387.5zM596 403v662h246q90 0 152.5 -62.5t62.5 -152.5q0 -57 -29 -107.5t-78 -78.5l150 -261h-185l-133 232h-26v-232h-160zM756 795h86q14 0 27.5 7t20.5 20.5t7 27.5q0 23 -16.5 39t-38.5 16h-86v-110z" />
<glyph unicode="&#xb0;" horiz-adv-x="530" d="M102 1232.5q0 67.5 48 115t114 47.5q27 0 51.5 -8.5t45 -23.5t36 -34.5t23.5 -44t8 -51.5q0 -68 -48 -116t-114.5 -48t-115 48t-48.5 115.5zM207 1231.5q0 -23.5 17.5 -40.5t41 -17t41 17t17.5 40.5t-17.5 41t-41 17.5t-41 -17.5t-17.5 -41z" />
<glyph unicode="&#xb1;" d="M102 6v162h795v-162h-795zM102 635v160h318v317h160v-317h317v-160h-317v-318h-160v318h-318z" />
<glyph unicode="&#xb4;" horiz-adv-x="409" d="M102 1128l109 297l96 -41l-143 -280z" />
<glyph unicode="&#xb6;" horiz-adv-x="1249" d="M102 1073q0 150 106 254.5t253 104.5v-9h686v-161h-139v-1455h-162v1455h-215v-1455h-160v1455h-10v-547q-96 0 -179 48t-131.5 130t-48.5 180z" />
<glyph unicode="&#xb8;" horiz-adv-x="573" d="M102 -354l74 75q31 -33 84 -32q43 0 74 21.5t31 49.5q0 18 -13.5 35t-38 27t-53.5 10h-51v68l8 14l98 156l88 -58l-57 -90q55 -23 90 -65.5t35 -96.5q0 -47 -28.5 -88t-77 -64.5t-105.5 -23.5q-96 0 -158 62z" />
<glyph unicode="&#xbb;" horiz-adv-x="1169" d="M102 453l258 262l-258 262l115 113l367 -375l-367 -375zM586 453l258 262l-258 262l114 113l367 -375l-367 -375z" />
<glyph unicode="&#xbf;" horiz-adv-x="983" d="M102 -289l160 17q12 -109 104.5 -169.5t202.5 -23.5q76 27 119 103.5t29 160.5q-14 74 -70 119q-113 94 -174 230.5t-61 291.5v66h161v-66q0 -121 46.5 -224t130.5 -173q98 -82 124 -213q27 -143 -46.5 -272t-206.5 -174q-63 -20 -129 -21q-115 1 -211 62 q-76 47 -122 122.5t-57 163.5zM395 715q0 39 28 67.5t67.5 28.5t68.5 -28.5t29 -67.5t-29 -68t-68.5 -29t-67.5 29t-28 68z" />
<glyph unicode="&#xc0;" horiz-adv-x="1427" d="M102 -8l594 1470l629 -1470h-176l-152 354h-579l-142 -354h-174zM483 506h447l-230 536zM502 1774h145l82 -240h-2h-98z" />
<glyph unicode="&#xc1;" horiz-adv-x="1427" d="M102 -8l629 1470l594 -1470h-174l-143 354h-580l-152 -354h-174zM498 506h444l-215 536zM698 1534l82 240h148l-127 -240h-103z" />
<glyph unicode="&#xc2;" horiz-adv-x="1427" d="M102 -8l607 1470l616 -1470h-174l-150 354h-579l-146 -354h-174zM444 1585l265 367l262 -367h-197l-65 90l-66 -90h-199zM489 506h445l-223 536zM852 1475h8l-6 -2z" />
<glyph unicode="&#xc3;" horiz-adv-x="1425" d="M102 -8l607 1470l614 -1470h-172l-150 354h-579l-146 -354h-174zM391 1692q74 96 168 115.5t178 -46.5l17 -14q35 -29 73.5 -25t67.5 21.5t51 44.5l80 -66q-88 -109 -197 -108q-74 0 -139 51q-12 8 -20 16q-35 27 -72 27q-63 0 -125 -80zM489 506h445l-223 536z" />
<glyph unicode="&#xc4;" horiz-adv-x="1425" d="M102 -8l607 1470l614 -1470h-172l-150 354h-579l-146 -354h-174zM422 1710q0 39 28.5 67.5t67.5 28.5t67.5 -28.5t28.5 -68.5t-28.5 -67.5t-67.5 -27.5q-27 0 -48 12t-34.5 34.5t-13.5 49.5zM489 506h445l-223 536zM805 1710q0 39 27.5 67.5t67.5 28.5t68.5 -28.5 t28.5 -68.5t-28.5 -67.5t-67.5 -27.5q-27 0 -49.5 12t-34.5 34.5t-12 49.5z" />
<glyph unicode="&#xc5;" horiz-adv-x="1425" d="M102 -8l529 1280q-47 23 -77 66.5t-30 99.5q0 76 54.5 130t131 54t131 -54.5t54.5 -129.5q0 -55 -29.5 -99.5t-77.5 -66.5l535 -1280h-172l-150 354h-579l-146 -354h-174zM489 506h445l-223 536zM629 1436.5q0 -33.5 23.5 -56t56.5 -22.5q23 0 41 10t28 28.5t10 41.5 q0 33 -23.5 56.5t-56 23.5t-56 -24t-23.5 -57.5z" />
<glyph unicode="&#xc6;" horiz-adv-x="1736" d="M102 -8l576 1431h956v-161h-616v-562h379v-161h-379v-373h616v-160h-778v340h-438l-144 -354h-172zM483 506h373v756h-70z" />
<glyph unicode="&#xc7;" horiz-adv-x="1411" d="M102 715q0 193 95.5 355.5t258 257.5t355.5 95q289 0 498 -204l-113 -115q-162 158 -385 158q-227 0 -388 -161t-161 -387.5t161 -387t388 -160.5q193 0 344 123l100 -125q-180 -147 -417 -156l-54 -86q37 -14 65 -37.5t44 -56.5t16 -68q0 -72 -61.5 -124t-149.5 -52 q-94 0 -157 62l73 75q31 -33 84 -32q43 0 75 21.5t32 49.5q0 14 -9.5 27.5t-22.5 23t-32.5 15.5t-42.5 6h-51v68l8 14l64 100q-262 35 -439.5 233.5t-177.5 467.5z" />
<glyph unicode="&#xc8;" horiz-adv-x="983" d="M102 6v1417h779v-161h-619v-562h379v-161h-379v-373h619v-160h-779zM406 1774h147l82 -240h-103z" />
<glyph unicode="&#xc9;" horiz-adv-x="983" d="M102 6v1417h779v-161h-619v-562h379v-161h-379v-373h619v-160h-779zM428 1534l82 240h147l-127 -240h-102z" />
<glyph unicode="&#xca;" horiz-adv-x="983" d="M102 6v1417h779v-161h-619v-562h379v-161h-379v-373h619v-160h-779zM303 1585l229 318l228 -318h-129l-99 139l-100 -139h-129z" />
<glyph unicode="&#xcb;" horiz-adv-x="983" d="M102 6v1417h779v-161h-619v-562h379v-159h-379v-375h619v-160h-779zM244 1709q0 40 28.5 68.5t67.5 28.5q27 0 49.5 -13t34.5 -34.5t12 -48.5t-12 -49.5t-34.5 -34.5t-49.5 -12q-39 0 -67.5 27.5t-28.5 67.5zM627 1709q0 40 27.5 68.5t68.5 28.5q27 0 48.5 -13 t34.5 -34.5t13 -48.5q0 -41 -28.5 -68.5t-68.5 -27.5t-67.5 27.5t-27.5 67.5z" />
<glyph unicode="&#xcc;" horiz-adv-x="450" d="M102 1769l9 5h159l78 -240h-117zM158 -4v1438h161v-1438h-161z" />
<glyph unicode="&#xcd;" horiz-adv-x="450" d="M102 1534l78 240h160l8 -5l-129 -235h-117zM131 -4v1438h162v-1438h-162z" />
<glyph unicode="&#xce;" horiz-adv-x="661" d="M102 1585l230 318l227 -318h-129l-100 139l-99 -139h-129zM250 -4v1438h162v-1438h-162z" />
<glyph unicode="&#xcf;" horiz-adv-x="780" d="M102 1710q0 39 29 67.5t69 28.5t67.5 -28.5t27.5 -68.5t-27.5 -67.5t-68.5 -27.5q-27 0 -48.5 12t-35 34.5t-13.5 49.5zM309 -4v1438h162v-1438h-162zM485 1710q0 39 28 67.5t68 28.5t68.5 -28.5t28.5 -68.5t-28.5 -67.5t-67.5 -27.5q-27 0 -49.5 12t-35 34.5t-12.5 49.5 z" />
<glyph unicode="&#xd0;" horiz-adv-x="1300" d="M102 539v161h99v723h291q190 0 354 -95t258 -258t94 -355.5t-94 -355t-258 -258t-354 -95.5h-291v533h-99zM360 166h132q225 0 385.5 160.5t160.5 387t-160.5 387.5t-385.5 161h-132v-562h201v-161h-201v-373z" />
<glyph unicode="&#xd1;" horiz-adv-x="1202" d="M102 -4v1477l838 -1057v1018h160v-1477l-838 1055v-1016h-160zM283 1692q74 96 169 115.5t179 -46.5l14 -14q37 -29 75 -25t66.5 21.5t51.5 44.5l82 -66q-90 -109 -199 -108q-74 0 -139 51q-12 8 -19 16q-35 27 -74 27q-63 0 -122 -80z" />
<glyph unicode="&#xd2;" horiz-adv-x="1622" d="M102 715q0 193 95.5 355.5t258 257.5t355.5 95t355.5 -95t258 -258t95.5 -355.5t-95.5 -355t-258 -258t-355.5 -95.5q-143 0 -274 56.5t-226.5 150.5t-152 226t-56.5 276zM262 715q0 -227 161 -388t388 -161t387 160.5t160 387t-160 387.5t-387 161q-150 0 -275.5 -73 t-199.5 -200t-74 -274zM684 1774h147l82 -240h-102z" />
<glyph unicode="&#xd3;" horiz-adv-x="1622" d="M102 715q0 193 95.5 355.5t258 257.5t355.5 95t355.5 -95t258 -258t95.5 -355.5t-95.5 -355t-258 -258t-355.5 -95.5q-143 0 -274 56.5t-226.5 150.5t-152 226t-56.5 276zM262 713.5q0 -226.5 161 -387t388 -160.5t387 160.5t160 387t-160 387.5t-387 161t-388 -161 t-161 -387.5zM709 1534l82 240h145l-127 -240h-100z" />
<glyph unicode="&#xd4;" horiz-adv-x="1622" d="M102 715q0 193 95.5 355.5t258 257.5t355.5 95t355.5 -95t258 -258t95.5 -355.5t-95.5 -355t-258 -258t-355.5 -95.5q-143 0 -274 56.5t-226.5 150.5t-152 226t-56.5 276zM262 713.5q0 -226.5 161 -387t388 -160.5t387 160.5t160 387t-160 387.5t-387 161t-388 -161 t-161 -387.5zM582 1585l229 318l227 -318h-129l-98 139l-100 -139h-129z" />
<glyph unicode="&#xd5;" horiz-adv-x="1622" d="M102 715q0 193 95.5 355.5t258 257.5t355.5 95t355.5 -95t258 -258t95.5 -355.5t-95.5 -355t-258 -258t-355.5 -95.5q-143 0 -274 56.5t-226.5 150.5t-152 226t-56.5 276zM262 713.5q0 -226.5 161 -387t388 -160.5t387 160.5t160 387t-160 387.5t-387 161t-388 -161 t-161 -387.5zM492 1692q74 96 169 115.5t179 -46.5l16 -14q35 -29 73 -25t67.5 21.5t50.5 44.5l81 -66q-88 -109 -198 -108q-74 0 -139 51q-10 8 -19 16q-35 27 -72 27q-63 0 -125 -80z" />
<glyph unicode="&#xd6;" horiz-adv-x="1622" d="M102 709q0 193 95.5 355.5t258 257.5t355.5 95t355.5 -95t258 -258t95.5 -355.5t-95.5 -355.5t-258 -258t-355.5 -95q-143 0 -274 56.5t-226.5 151.5t-152 226t-56.5 275zM262 708.5q0 -227.5 161 -388t388 -160.5t387 160.5t160 388t-160 387t-387 159.5t-388 -159.5 t-161 -387zM522 1704q0 39 29 67.5t68.5 28.5t68.5 -28.5t29 -68.5t-29 -67.5t-67 -27.5q-27 0 -49.5 12t-36 34.5t-13.5 49.5zM905 1703q0 40 29 68.5t68.5 28.5t67.5 -28.5t28 -68.5t-28 -67.5t-67.5 -27.5t-68.5 27.5t-29 67.5z" />
<glyph unicode="&#xd7;" horiz-adv-x="880" d="M102 492l224 223l-224 223l113 115l225 -226l224 226l114 -115l-225 -223l225 -223l-114 -115l-224 225l-225 -225z" />
<glyph unicode="&#xd8;" horiz-adv-x="1622" d="M102 715q0 193 95.5 355.5t258 257.5t355.5 95t355.5 -95t258 -258t95.5 -355.5t-95.5 -355t-258 -258t-355.5 -95.5q-143 0 -274 56.5t-226.5 150.5t-152 226t-56.5 276zM262 715q0 -186 119 -338l774 760q-154 125 -344 125q-150 0 -275.5 -73t-199.5 -200t-74 -274z M455 301q156 -135 356 -135q227 0 387 161t160 388q0 195 -129 348z" />
<glyph unicode="&#xd9;" horiz-adv-x="1202" d="M102 506v928h160v-928q0 -141 99.5 -240.5t239.5 -99.5t239.5 99.5t99.5 240.5v928h160v-928q0 -207 -146.5 -353.5t-352.5 -146.5t-352.5 146.5t-146.5 353.5zM473 1774h148l79 -240h-100z" />
<glyph unicode="&#xda;" horiz-adv-x="1202" d="M102 506v928h160v-928q0 -141 99.5 -240.5t239.5 -99.5t239.5 99.5t99.5 240.5v928h160v-928q0 -207 -146.5 -353.5t-352.5 -146.5t-352.5 146.5t-146.5 353.5zM502 1534l82 240h145l-127 -240h-100z" />
<glyph unicode="&#xdb;" horiz-adv-x="1202" d="M102 506v928h160v-928q0 -141 99.5 -240.5t239.5 -99.5t239.5 99.5t99.5 240.5v928h160v-928q0 -207 -146.5 -353.5t-352.5 -146.5t-352.5 146.5t-146.5 353.5zM373 1585l229 318l227 -318h-129l-98 139l-100 -139h-129z" />
<glyph unicode="&#xdc;" horiz-adv-x="1202" d="M102 506v928h160v-928q0 -141 99.5 -240.5t239.5 -99.5t239.5 99.5t99.5 240.5v928h160v-928q0 -207 -146.5 -353.5t-352.5 -146.5t-352.5 146.5t-146.5 353.5zM313 1709q0 40 29 68.5t68 28.5q20 0 37.5 -8t31 -20.5t20.5 -30.5t7 -37q0 -41 -27.5 -68.5t-67.5 -27.5 t-69 27.5t-29 67.5zM696 1709q0 40 29 68.5t68 28.5q20 0 37.5 -8t30.5 -20.5t20.5 -30.5t7.5 -37q0 -41 -29 -68.5t-67.5 -27.5t-67.5 27.5t-29 67.5z" />
<glyph unicode="&#xdd;" horiz-adv-x="1376" d="M102 1432h189l397 -658l397 658h189l-506 -834v-606h-160v606zM590 1534l82 240h147l-127 -240h-102z" />
<glyph unicode="&#xde;" horiz-adv-x="851" d="M102 -6v1440h160v-263q2 0 13.5 1.5t15.5 1.5q190 0 324.5 -135.5t134.5 -325t-134.5 -323.5t-324.5 -134q-4 0 -15.5 1t-13.5 1v-264h-160zM262 418q88 -10 164 27.5t120 110.5t44 159q0 131 -97.5 222t-230.5 73v-592z" />
<glyph unicode="&#xdf;" horiz-adv-x="1116" d="M102 -479v1472q0 178 126 304t304 126q80 0 153 -31.5t126 -84t84 -126t31 -153.5q0 -166 -119 -283q94 -49 150.5 -142t56.5 -204q0 -162 -116 -277.5t-280 -115.5h-268v160h268q96 0 165 68.5t69 166t-68.5 166t-165.5 68.5h-86v160q96 0 165 68.5t69 164.5t-68.5 165 t-165.5 69q-113 0 -191.5 -79t-78.5 -190v-1472h-160z" />
<glyph unicode="&#xe0;" horiz-adv-x="1028" d="M102 276q0 72 28 130.5t78 99.5t124 62.5t164 21.5q147 0 270 -53v22q0 94 -67.5 160.5t-161.5 66.5q-74 0 -130.5 -12t-121.5 -53l-88 135q90 55 169.5 72.5t170.5 17.5q162 0 275.5 -113.5t113.5 -273.5v-563h-160v110q-140 -116 -324 -116q-150 0 -245 80t-95 206z M262 276q0 -43 24.5 -71.5t61.5 -38.5t57.5 -13t38.5 -3q57 0 117 20t114 70.5t77 121.5q-20 16 -58.5 31t-91.5 26t-106 11q-45 0 -86 -8q-51 -10 -84 -29.5t-45.5 -44t-15.5 -39t-3 -33.5zM414 1083l82 240h127l18 -8l-123 -232h-104z" />
<glyph unicode="&#xe1;" horiz-adv-x="1028" d="M102 276q0 72 28 130.5t78 99.5t124 62.5t164 21.5q147 0 270 -53v22q0 61 -30.5 113.5t-84 83t-114.5 30.5q-74 0 -130.5 -12t-121.5 -53l-88 135q90 55 169.5 72.5t170.5 17.5q162 0 275.5 -113.5t113.5 -273.5v-563h-160v110q-140 -116 -324 -116q-150 0 -245 80 t-95 206zM262 276q0 -43 24.5 -71.5t61.5 -38.5t57.5 -13t38.5 -3q57 0 117 20t114 70.5t77 121.5q-33 25 -106 46.5t-150 21.5q-45 0 -86 -8q-51 -10 -84 -29.5t-45.5 -44t-15.5 -39t-3 -33.5zM387 1315l19 8h126l82 -240h-104z" />
<glyph unicode="&#xe2;" horiz-adv-x="1028" d="M102 276q0 145 105.5 229.5t288.5 84.5q147 0 270 -53v22q0 94 -67.5 160.5t-161.5 66.5q-74 0 -130.5 -12t-121.5 -55l-86 135q88 57 167.5 74.5t170.5 17.5q162 0 275.5 -113.5t113.5 -273.5v-563h-160v110q-140 -116 -324 -116q-150 0 -245 80t-95 206zM262 276 q0 -35 17.5 -60.5t40 -37.5t52 -19t45 -8t25.5 -1q96 0 186.5 53t123.5 159q-33 25 -106 46.5t-150 21.5q-45 0 -86 -8q-51 -10 -84 -29.5t-45.5 -44t-15.5 -39t-3 -33.5zM285 1071l229 320l227 -320h-127l-100 139l-100 -139h-129z" />
<glyph unicode="&#xe3;" horiz-adv-x="1028" d="M102 276q0 72 28 130.5t78 99.5t124 62.5t164 21.5q147 0 270 -53v22q0 61 -30.5 113.5t-84 83t-114.5 30.5q-74 0 -130.5 -12t-121.5 -53l-86 135q88 55 167.5 72.5t170.5 17.5q162 0 275.5 -113.5t113.5 -273.5v-563h-160v110q-140 -116 -324 -116q-150 0 -245 80 t-95 206zM250 1180q74 96 169 115.5t177 -46.5l16 -14q27 -20 55.5 -24.5t54.5 6t46 25.5t37 34l82 -66q-90 -109 -199 -108q-74 0 -139 51q-10 8 -19 16q-35 27 -73 27q-63 0 -123 -80zM262 276q0 -43 24.5 -71.5t61.5 -38.5t57.5 -13t38.5 -3q94 0 184.5 53t123.5 159 q-33 25 -106 46.5t-150 21.5q-45 0 -86 -8q-51 -10 -84 -29.5t-45.5 -44t-15.5 -39t-3 -33.5z" />
<glyph unicode="&#xe4;" horiz-adv-x="1028" d="M102 276q0 72 28 130.5t78 99.5t124 62.5t164 21.5q147 0 270 -53v22q0 94 -67.5 160.5t-161.5 66.5q-74 0 -130.5 -12t-121.5 -55l-88 135q90 57 169.5 74.5t170.5 17.5q162 0 275.5 -113.5t113.5 -273.5v-563h-160v110q-140 -116 -324 -116q-150 0 -245 80t-95 206z M225 1198q0 39 29 67.5t68.5 28.5t68.5 -28.5t29 -68.5t-29 -67.5t-67 -27.5q-27 0 -49.5 12t-36 34.5t-13.5 49.5zM262 276q0 -43 24.5 -71.5t61.5 -38.5t57.5 -13t36.5 -3q96 0 186.5 53t123.5 159q-33 25 -106 46.5t-150 21.5q-45 0 -86 -8q-51 -10 -84 -29.5t-45.5 -44 t-15.5 -39t-3 -33.5zM608 1197q0 40 29 68.5t68 28.5q20 0 37.5 -8t30.5 -20.5t20.5 -30.5t7.5 -37q0 -41 -28 -68.5t-67.5 -27.5t-68.5 27.5t-29 67.5z" />
<glyph unicode="&#xe5;" horiz-adv-x="1028" d="M102 276q0 72 28 130.5t78 99.5t124 62.5t164 21.5q147 0 270 -53v22q0 94 -67.5 160.5t-161.5 66.5q-74 0 -130.5 -12t-121.5 -55l-88 135q90 57 169.5 74.5t170.5 17.5q162 0 275.5 -113.5t113.5 -273.5v-563h-160v110q-140 -116 -324 -116q-150 0 -245 80t-95 206z M262 276q0 -43 24.5 -71.5t61.5 -38.5t57.5 -13t36.5 -3q96 0 186.5 53t123.5 159q-33 25 -106 46.5t-150 21.5q-45 0 -86 -8q-51 -10 -84 -29.5t-45.5 -44t-15.5 -39t-3 -33.5zM358 1172.5q0 76.5 54.5 131t130 54.5t130 -54.5t54.5 -129.5q0 -51 -24.5 -93.5t-66.5 -68 t-93 -25.5q-76 0 -130.5 54.5t-54.5 131zM463 1172.5q0 -33.5 23.5 -56t56.5 -22.5q23 0 41 10t28.5 28.5t10.5 41.5q0 33 -24 56t-56.5 23t-56 -23.5t-23.5 -57z" />
<glyph unicode="&#xe6;" horiz-adv-x="1802" d="M102 276q0 145 105.5 229.5t288.5 84.5q147 0 270 -53v22q0 94 -67.5 160.5t-161.5 66.5q-74 0 -130.5 -12t-121.5 -55l-88 135q90 57 169.5 74.5t170.5 17.5q68 0 131 -22.5t113 -63.5t85 -96q92 115 232 156q186 55 356 -37q102 -57 168 -158q35 -55 55 -121l23 -78 l-729 -213q43 -72 112 -110q111 -59 232 -25q123 37 182 148l141 -78q-92 -168 -276 -223q-66 -18 -133 -19q-119 0 -223 57q-41 23 -80 56v-123h-160v110q-140 -116 -324 -116q-150 0 -245 80t-95 206zM262 276q0 -43 24.5 -71.5t61.5 -38.5t57.5 -13t36.5 -3 q96 0 186.5 53t123.5 159q-33 25 -106 46.5t-150 21.5q-45 0 -86 -8q-51 -10 -84 -29.5t-45.5 -44t-15.5 -39t-3 -33.5zM926 467l565 166q-2 0 -3 2t-1 4q-41 63 -110.5 101t-145.5 38q-45 0 -88 -12q-121 -37 -182 -148q-33 -59 -35 -135v-16z" />
<glyph unicode="&#xe7;" d="M102.5 471q-0.5 193 137.5 328q131 133 327.5 133t329.5 -133l-115 -113q-86 86 -215 86t-215 -86q-90 -90 -90 -216t90 -214q86 -86 215 -86t215 86l115 -115q-94 -92 -225 -123l-54 -84q33 -18 58.5 -44.5t40 -59.5t14.5 -70q0 -84 -69.5 -143t-167.5 -59 q-106 0 -179 67l113 115q25 -23 66 -23q23 0 41 7.5t27 17.5t9 18q0 14 -22.5 28.5t-54.5 14.5h-80v105l12 20l53 86q-139 27 -239 127q-137 137 -137.5 330z" />
<glyph unicode="&#xe8;" horiz-adv-x="1140" d="M121 340q-53 186 39 356t277.5 224.5t355.5 -37.5q104 -59 168 -158q37 -57 55 -121l22 -78l-729 -213q43 -72 113 -108q111 -61 232.5 -25.5t183.5 146.5l141 -78q-94 -168 -279 -223q-66 -18 -131 -19q-119 0 -223 57q-129 70 -194 203l-9 -2zM262 467l567 166l-1 2 t-3 4q-41 63 -109.5 101t-146.5 38q-43 0 -86 -12q-121 -37 -182 -148q-39 -72 -39 -151zM373 1315l18 8h125l82 -240h-102z" />
<glyph unicode="&#xe9;" horiz-adv-x="1140" d="M121 340q-53 186 39 356t278 224q184 55 355 -37q104 -57 168 -158q37 -57 55 -121l22 -78l-729 -213q43 -72 113 -108q111 -61 232.5 -25.5t183.5 146.5l141 -78q-94 -168 -279 -223q-66 -18 -131 -19q-119 0 -223 57q-129 70 -194 203l-9 -2zM262 467l567 166l-1 2 t-3 4q-41 63 -109.5 101t-146.5 38q-43 0 -86 -12q-121 -37 -182 -148q-39 -72 -39 -151zM461 1083l82 240h127l18 -8l-123 -232h-104z" />
<glyph unicode="&#xea;" horiz-adv-x="1140" d="M121 340q-53 186 39 356t277.5 224.5t355.5 -37.5q104 -59 168 -158q37 -57 55 -121l22 -78l-729 -213q43 -72 113 -108q111 -61 232.5 -25.5t183.5 146.5l141 -78q-94 -168 -279 -223q-66 -18 -131 -19q-119 0 -223 57q-129 70 -194 203l-9 -2zM262 467l567 166l-1 2 t-3 4q-41 63 -109.5 101t-146.5 38q-43 0 -86 -12q-121 -35 -182 -148q-39 -72 -39 -151zM326 1071l227 320l229 -320h-129l-100 139l-100 -139h-127z" />
<glyph unicode="&#xeb;" horiz-adv-x="1140" d="M121 342q-53 184 39 354t277.5 224.5t355.5 -37.5q104 -57 168 -158q37 -55 55 -121l22 -78l-729 -213q43 -72 113 -108q111 -61 232.5 -25.5t183.5 146.5l141 -78q-94 -168 -279 -223q-66 -18 -131 -19q-119 0 -223 57q-129 70 -194 203l-9 -2zM262 467l567 166l-2 3 l-2 3q-41 63 -109.5 101t-146.5 38q-43 0 -86 -12q-123 -37 -182 -148q-41 -72 -39 -151zM274 1198q0 18 7.5 36.5t20.5 31t30.5 20.5t38.5 8q39 0 67.5 -28.5t28.5 -68.5t-28.5 -67.5t-67.5 -27.5q-27 0 -49.5 12t-35 34.5t-12.5 49.5zM655 1197q0 40 29 68.5t69 28.5 t67.5 -28.5t27.5 -68.5t-27.5 -67.5t-67.5 -27.5t-69 27.5t-29 67.5z" />
<glyph unicode="&#xec;" horiz-adv-x="473" d="M102 1315l19 8h125l82 -240h-103zM211 -4v965h160v-965h-160z" />
<glyph unicode="&#xed;" horiz-adv-x="483" d="M102 -4v965h160v-965h-160zM139 1083l78 240h135l29 -12l-123 -228h-119zM225 1034h6l-2 -2z" />
<glyph unicode="&#xee;" horiz-adv-x="661" d="M102 1071l230 320l227 -320h-129l-100 139l-99 -139h-129zM250 -4v965h162v-965h-162z" />
<glyph unicode="&#xef;" horiz-adv-x="780" d="M102 1198q0 39 29 67.5t69 28.5t67.5 -28.5t27.5 -68.5t-27.5 -67.5t-68.5 -27.5q-27 0 -48.5 12t-35 34.5t-13.5 49.5zM309 -4v965h162v-965h-162zM485 1197q0 40 28 68.5t68 28.5t68.5 -28.5t28.5 -68.5t-28.5 -67.5t-68.5 -27.5t-68 27.5t-28 67.5z" />
<glyph unicode="&#xf0;" horiz-adv-x="1134" d="M102 471.5q0 192.5 136.5 328.5t328.5 136q94 0 178 -37q-76 137 -194 242l-205 -156l-98 129l170 127q-106 66 -203 96l-57 19l49 153l57 -18q152 -49 291 -148l160 121l96 -129l-129 -96q139 -131 226 -301t112 -363q12 -55 12 -104q0 -6 -1 -14t-1 -13v-5v-5h-2 q-8 -117 -71.5 -215t-166 -155.5t-223.5 -57.5q-193 0 -329 136.5t-136 329zM262 470q0 -126 90 -215t215 -89q119 0 205 81t96 197q0 37 -8 103q-12 49 -39.5 91t-65.5 72.5t-87.5 48t-100.5 17.5q-125 0 -215 -90t-90 -216z" />
<glyph unicode="&#xf1;" d="M102 -4v965h160v-93q109 80 238 80q164 0 280.5 -116.5t116.5 -280.5v-555h-160v555q0 98 -69.5 167.5t-168 69.5t-168 -69.5t-69.5 -167.5v-555h-160zM182 1180q74 96 168 115.5t178 -46.5l17 -14q35 -29 73.5 -25t67.5 21.5t51 44.5l80 -66q-88 -109 -196 -108 q-74 0 -142 51q-8 8 -18 16q-35 27 -72 27q-63 0 -125 -80z" />
<glyph unicode="&#xf2;" horiz-adv-x="1134" d="M102 471.5q0 192.5 136.5 328.5t328.5 136q127 0 233.5 -62.5t169 -169t62.5 -233.5q0 -193 -136 -329t-328.5 -136t-329 136.5t-136.5 329zM262 470q0 -126 90 -215t216 -89t215 89t89 216q0 82 -40.5 152.5t-111.5 111.5t-153 41q-125 0 -215 -90t-90 -216zM440 1315 l19 8h127l82 -240h-105z" />
<glyph unicode="&#xf3;" horiz-adv-x="1134" d="M102 471.5q0 192.5 136.5 328.5t329 136t328.5 -136t136 -328.5t-136 -329t-328.5 -136.5t-329 136.5t-136.5 329zM262 470q0 -126 90 -215t216 -89t215 89t89 216q0 82 -40.5 152.5t-111.5 111.5t-153 41q-125 0 -215 -90t-90 -216zM467 1083l82 240h127l18 -8 l-123 -232h-104z" />
<glyph unicode="&#xf4;" horiz-adv-x="1134" d="M102 471.5q0 192.5 136.5 328.5t329 136t328.5 -136t136 -328.5t-136 -329t-328.5 -136.5t-329 136.5t-136.5 329zM262 471q0 -82 41 -152.5t111.5 -111.5t152.5 -41q127 0 216 89t89 216q0 61 -24.5 117.5t-65.5 97.5t-97.5 65.5t-117.5 24.5q-125 0 -215 -90t-90 -215z M338 1071l229 320l228 -320h-129l-99 139l-100 -139h-129z" />
<glyph unicode="&#xf5;" horiz-adv-x="1134" d="M102 471.5q0 192.5 136.5 328.5t329 136t328.5 -136t136 -328.5t-136 -329t-328.5 -136.5t-329 136.5t-136.5 329zM248 1180q74 96 169 115.5t179 -46.5l14 -14q37 -29 76 -25t67.5 21.5t49.5 44.5l82 -66q-88 -109 -197 -108q-74 0 -141 51q-8 8 -19 16q-35 27 -71 27 q-63 0 -125 -80zM262 471q0 -82 41 -152.5t111.5 -111.5t152.5 -41q127 0 216 89t89 216q0 61 -24.5 117.5t-65.5 97.5t-97.5 65.5t-117.5 24.5q-125 0 -215 -90t-90 -215z" />
<glyph unicode="&#xf6;" horiz-adv-x="1134" d="M102 471.5q0 192.5 136.5 328.5t329 136t328.5 -136t136 -328.5t-136 -329t-328.5 -136.5t-329 136.5t-136.5 329zM262 470q0 -126 90 -215t216 -89t215 89t89 216q0 61 -24.5 117.5t-65.5 97.5t-97.5 65.5t-117.5 24.5q-125 0 -215 -90t-90 -216zM281 1198 q0 39 27.5 67.5t67.5 28.5t68.5 -28.5t28.5 -68.5t-28.5 -67.5t-67.5 -27.5q-27 0 -49.5 12t-34.5 34.5t-12 49.5zM662 1198q0 39 28.5 67.5t68.5 28.5t67.5 -28.5t27.5 -68.5t-27.5 -67.5t-68.5 -27.5q-25 0 -47.5 12t-35.5 34.5t-13 49.5z" />
<glyph unicode="&#xf7;" horiz-adv-x="1054" d="M102 635v160h850v-160h-850zM430 380q0 40 28.5 67.5t68.5 27.5t68 -27.5t28 -67.5t-28 -68.5t-68 -28.5t-68.5 28.5t-28.5 68.5zM430 1050q0 40 28.5 67.5t68.5 27.5t68 -27.5t28 -67.5t-28 -69t-68 -29t-68.5 29t-28.5 69z" />
<glyph unicode="&#xf8;" horiz-adv-x="1134" d="M102 471.5q0 192.5 136.5 328.5t329 136t328.5 -136t136 -328.5t-136 -329t-328.5 -136.5t-329 136.5t-136.5 329zM262 471q0 -76 41 -147l416 409q-72 43 -152 43q-82 0 -152.5 -41t-111.5 -111.5t-41 -152.5zM416 209q71 -43 151 -43q127 0 216 89t89 216q0 76 -41 147 z" />
<glyph unicode="&#xf9;" d="M102 403v555h160v-555q0 -98 69.5 -167.5t168 -69.5t168 69.5t69.5 167.5v555h160v-966h-160v94q-108 -80 -237 -80q-164 0 -281 117t-117 280zM373 1315l18 8h127l82 -240h-104z" />
<glyph unicode="&#xfa;" d="M102 403v555h160v-555q0 -98 69.5 -167.5t168 -69.5t168 69.5t69.5 167.5v555h160v-966h-160v94q-108 -80 -237 -80q-164 0 -281 117t-117 280zM401 1083l82 240h125l19 -8l-123 -232h-103z" />
<glyph unicode="&#xfb;" d="M102 403v555h160v-555q0 -98 69.5 -167.5t168 -69.5t168 69.5t69.5 167.5v555h160v-966h-160v94q-106 -80 -237 -80q-106 0 -198.5 53.5t-146 144.5t-53.5 199zM272 1071l228 320l229 -320h-129l-100 139l-101 -139h-127z" />
<glyph unicode="&#xfc;" d="M102 403v555h160v-555q0 -98 69.5 -167.5t168 -69.5t168 69.5t69.5 167.5v555h160v-966h-160v94q-108 -80 -237 -80q-164 0 -281 117t-117 280zM213 1197q0 40 27.5 68.5t68.5 28.5q18 0 37 -8t31 -20.5t20.5 -30.5t8.5 -37q0 -41 -29 -68.5t-69 -27.5t-67.5 27.5 t-27.5 67.5zM594 1197q0 40 28.5 68.5t68.5 28.5t68.5 -28.5t28.5 -68.5t-28.5 -67.5t-68.5 -27.5t-68.5 27.5t-28.5 67.5z" />
<glyph unicode="&#xfd;" horiz-adv-x="1140" d="M102 958h179l292 -591l287 591h178l-665 -1370l-33 -67h-178l321 663zM473 1079l82 240h133l12 -4l-125 -236h-102z" />
<glyph unicode="&#xfe;" horiz-adv-x="1134" d="M102 -479v1911h160v-613q133 117 305 117q193 0 329 -136t136 -328.5t-136 -329t-329 -136.5q-172 0 -305 117v-602h-160zM262 470q0 -126 90 -215t215 -89q82 0 153 41t111.5 111.5t40.5 152.5q0 125 -89 215t-215 90t-216 -90t-90 -216z" />
<glyph unicode="&#xff;" horiz-adv-x="1140" d="M102 958h179l292 -591l287 591h178l-696 -1437h-180l67 137l254 526zM285 1197q0 40 28.5 68.5t69.5 28.5q18 0 36.5 -8t31 -20.5t20.5 -30.5t8 -37q0 -41 -28.5 -68.5t-68.5 -27.5t-68.5 27.5t-28.5 67.5zM668 1197q0 40 28.5 68.5t67.5 28.5q20 0 37.5 -8t31 -20.5 t20.5 -30.5t7 -37q0 -41 -27.5 -68.5t-67.5 -27.5t-68.5 27.5t-28.5 67.5z" />
<glyph unicode="&#x152;" horiz-adv-x="2238" d="M102 715q0 193 95.5 355.5t258 257.5t355.5 95q109 0 211 -33.5t186 -92t150 -140.5v266h778v-161h-616v-562h378v-161h-378v-373h616v-160h-778v264q-98 -123 -241.5 -193.5t-305.5 -70.5q-143 0 -274 56.5t-226.5 150.5t-152 226t-56.5 276zM262 713.5 q0 -226.5 161 -387t388 -160.5t387 160.5t160 387t-160 387.5t-387 161t-388 -161t-161 -387.5z" />
<glyph unicode="&#x153;" horiz-adv-x="1910" d="M102 471.5q0 192.5 136.5 328.5t328.5 136q119 0 220.5 -55.5t164.5 -149.5q96 143 254 189q186 55 357 -37q104 -57 168 -158q37 -55 55 -121l22 -78l-729 -213q43 -72 113 -108q111 -61 233 -27q121 37 183 148l139 -78q-43 -82 -115.5 -139.5t-161.5 -83.5 q-66 -18 -133 -19q-117 0 -223 57q-94 51 -160 150q-43 -63 -102 -109.5t-132 -72t-153 -25.5q-193 0 -329 136.5t-136 329zM262 470q0 -126 90 -215t216 -89t215 89t89 216q0 61 -24.5 117.5t-65.5 97.5t-97.5 65.5t-117.5 24.5q-125 0 -215 -90t-90 -216zM1032 467 l567 166l-2 2t-2 4q-41 63 -109.5 101t-146.5 38q-45 0 -86 -12q-123 -37 -184 -148q-39 -72 -37 -151z" />
<glyph unicode="&#x178;" horiz-adv-x="1376" d="M102 1432h189l397 -658l399 658h187l-506 -834v-606h-160v606zM401 1709q0 40 28 68.5t69 28.5q18 0 36.5 -8t31 -20.5t20.5 -30.5t8 -37q0 -41 -28.5 -68.5t-68.5 -27.5t-68 27.5t-28 67.5zM782 1709q0 40 29 68.5t68 28.5q20 0 37.5 -8t31 -20.5t21.5 -30.5t8 -37 q0 -41 -28.5 -68.5t-68.5 -27.5t-69 27.5t-29 67.5z" />
<glyph unicode="&#x2c6;" horiz-adv-x="661" d="M102 1114l230 318l227 -318h-129l-98 139l-101 -139h-129z" />
<glyph unicode="&#x2dc;" horiz-adv-x="841" d="M102 1323q74 98 169.5 117.5t179.5 -47.5l14 -13q27 -20 55.5 -24t54 5t46 24.5t36.5 35.5l82 -65q-90 -109 -198 -109q-74 0 -140 51q-8 4 -18 15q-35 28 -74 28q-63 0 -123 -79z" />
<glyph unicode="&#x2000;" horiz-adv-x="976" />
<glyph unicode="&#x2001;" horiz-adv-x="1952" />
<glyph unicode="&#x2002;" horiz-adv-x="976" />
<glyph unicode="&#x2003;" horiz-adv-x="1952" />
<glyph unicode="&#x2004;" horiz-adv-x="650" />
<glyph unicode="&#x2005;" horiz-adv-x="488" />
<glyph unicode="&#x2006;" horiz-adv-x="325" />
<glyph unicode="&#x2007;" horiz-adv-x="325" />
<glyph unicode="&#x2008;" horiz-adv-x="244" />
<glyph unicode="&#x2009;" horiz-adv-x="390" />
<glyph unicode="&#x200a;" horiz-adv-x="108" />
<glyph unicode="&#x2010;" d="M102 635v160h795v-160h-795z" />
<glyph unicode="&#x2011;" d="M102 635v160h795v-160h-795z" />
<glyph unicode="&#x2012;" d="M102 635v160h795v-160h-795z" />
<glyph unicode="&#x2013;" horiz-adv-x="833" d="M102 389v162h629v-162h-629z" />
<glyph unicode="&#x2014;" horiz-adv-x="1085" d="M102 389v162h881v-162h-881z" />
<glyph unicode="&#x2018;" horiz-adv-x="411" d="M102 995l52 346h155l-73 -346h-134z" />
<glyph unicode="&#x2019;" horiz-adv-x="397" d="M102 995l45 346h148l-82 -346h-111z" />
<glyph unicode="&#x201a;" horiz-adv-x="364" d="M102 90h160l-24 -364h-111z" />
<glyph unicode="&#x201c;" horiz-adv-x="655" d="M102 995l78 346h113l-47 -346h-144zM362 995l78 346h113l-49 -346h-142z" />
<glyph unicode="&#x201d;" horiz-adv-x="657" d="M102 995l48 346h145l-78 -346h-115zM362 995l48 346h145l-78 -346h-115z" />
<glyph unicode="&#x201e;" horiz-adv-x="718" d="M102 90h160l-20 -364h-119zM457 90h159l-24 -364h-111z" />
<glyph unicode="&#x2022;" horiz-adv-x="397" d="M102 714q0 40 29 68.5t68 28.5t67.5 -28.5t28.5 -68.5t-28.5 -68t-67.5 -28t-68 28t-29 68z" />
<glyph unicode="&#x2026;" horiz-adv-x="1513" d="M102 11q0 40 29 69t69 29t67.5 -29t27.5 -70q0 -25 -12.5 -47t-34.5 -35.5t-49 -13.5q-39 0 -68 28.5t-29 68.5zM662 11q0 40 27.5 69t67.5 29t68.5 -29t28.5 -70q0 -25 -13.5 -47t-35.5 -35.5t-47 -13.5q-41 0 -68.5 28.5t-27.5 68.5zM1219 11q0 40 28.5 69t68.5 29 t67.5 -29t27.5 -70q0 -25 -12.5 -47t-34.5 -35.5t-49 -13.5q-39 0 -67.5 28.5t-28.5 68.5z" />
<glyph unicode="&#x202f;" horiz-adv-x="390" />
<glyph unicode="&#x203a;" horiz-adv-x="686" d="M102 453l256 262l-256 262l115 113l367 -375l-367 -375z" />
<glyph unicode="&#x205f;" horiz-adv-x="488" />
<glyph unicode="&#x20ac;" horiz-adv-x="1415" d="M102 715q0 293 208 500.5t501 207.5t500 -209l-113 -112q-156 156 -387 155.5t-387 -155.5q-74 -72 -115 -170h514v-105h-549q-12 -57 -12 -112.5t14 -118.5h547v-104h-512q43 -94 113 -164q156 -156 387 -156t387 156l115 -115q-209 -207 -502 -207t-502 207 q-207 209 -207 502z" />
<glyph unicode="&#x2122;" horiz-adv-x="1316" d="M102 1262v161h387v-161h-112v-541h-162v541h-113zM602 721v711h68l239 -261l240 261h65v-711h-159v371l-146 -158l-145 158v-371h-162z" />
<glyph unicode="&#x25fc;" horiz-adv-x="962" d="M0 0v963h963v-963h-963z" />
</font>
</defs>
</svg>
