<svg xmlns="http://www.w3.org/2000/svg" width="104.004" height="78.006" viewBox="0 0 104.004 78.006">
  <g id="best" transform="translate(-0.001 -64.008)">
    <g id="Group_5297" data-name="Group 5297" transform="translate(91.113 86.099)">
      <g id="Group_5296" data-name="Group 5296">
        <path id="Path_6116" data-name="Path 6116" d="M457.609,189.66l3.739-14.088a2.247,2.247,0,0,0-2.172-2.823h-9.058a1.523,1.523,0,1,0,0,3.047h8.018l-3.527,13.291a2.258,2.258,0,0,0,0,1.151l3.526,13.288h-8.081a1.524,1.524,0,0,0,0,3.047h9.121a2.247,2.247,0,0,0,2.172-2.823Z" transform="translate(-448.531 -172.748)" fill="#54aab4"/>
      </g>
    </g>
    <g id="Group_5299" data-name="Group 5299" transform="translate(0 86.099)">
      <g id="Group_5298" data-name="Group 5298">
        <path id="Path_6117" data-name="Path 6117" d="M11.23,203.523H3.288l3.527-13.291a2.257,2.257,0,0,0,0-1.151L3.288,175.794h7.955a1.524,1.524,0,0,0,0-3.047H2.248A2.247,2.247,0,0,0,.076,175.57l3.739,14.088L.076,203.747a2.247,2.247,0,0,0,2.172,2.823H11.23a1.524,1.524,0,1,0,0-3.047Z" transform="translate(0 -172.747)" fill="#54aab4"/>
      </g>
    </g>
    <g id="Group_5301" data-name="Group 5301" transform="translate(21.848 72.597)">
      <g id="Group_5300" data-name="Group 5300">
        <path id="Path_6118" data-name="Path 6118" d="M167.851,132.62a30.417,30.417,0,0,0-60.283,0,1.524,1.524,0,1,0,3.02.4,27.37,27.37,0,0,1,54.244,0,1.524,1.524,0,0,0,1.508,1.324,1.552,1.552,0,0,0,.2-.014,1.523,1.523,0,0,0,1.311-1.712Z" transform="translate(-107.554 -106.282)" fill="#54aab4"/>
      </g>
    </g>
    <g id="Group_5303" data-name="Group 5303" transform="translate(21.807 105.051)">
      <g id="Group_5302" data-name="Group 5302">
        <path id="Path_6119" data-name="Path 6119" d="M166.406,266.078a1.526,1.526,0,0,0-1.7,1.325,27.37,27.37,0,0,1-54.317-.02,1.523,1.523,0,0,0-3.024.372,30.417,30.417,0,0,0,60.366.022,1.524,1.524,0,0,0-1.325-1.7Z" transform="translate(-107.354 -266.046)" fill="#54aab4"/>
      </g>
    </g>
    <g id="Group_5305" data-name="Group 5305" transform="translate(32.89 80.352)">
      <g id="Group_5304" data-name="Group 5304">
        <path id="Path_6120" data-name="Path 6120" d="M202.241,159.383a3.738,3.738,0,0,0-3.734-3.734H185.226l1.233-3.011a6.268,6.268,0,0,0-1.063-6.975,3.738,3.738,0,0,0-5.9.526l-.018.03L172.9,157.1a2.629,2.629,0,0,0-1.96-.9l-6.374-.034h-.014a2.637,2.637,0,0,0-2.636,2.636V178.28a2.639,2.639,0,0,0,2.636,2.636h6.374a2.641,2.641,0,0,0,2.523-1.872l5.171,1.763a22.783,22.783,0,0,0,7.367,1.221H195.2a3.738,3.738,0,0,0,3.734-3.733v-1.413a3.715,3.715,0,0,0-.24-1.319,3.733,3.733,0,0,0,1.657-3.1V171.05a3.712,3.712,0,0,0-.307-1.482,3.73,3.73,0,0,0,1.432-2.938v-1.413a3.708,3.708,0,0,0-.409-1.7,3.723,3.723,0,0,0,1.18-2.722Zm-31.73,18.487h-5.553V159.215l5.553.029Zm28-16.387h-8.3a1.524,1.524,0,0,0,0,3.047h7.532a.687.687,0,0,1,.687.686v1.413a.688.688,0,0,1-.687.687H190.2a1.524,1.524,0,1,0,0,3.047h6.407a.688.688,0,0,1,.687.687v1.413a.688.688,0,0,1-.687.687H190.2a1.524,1.524,0,0,0,0,3.047h4.99a.688.688,0,0,1,.687.687V178.3a.687.687,0,0,1-.687.686h-9.212a19.745,19.745,0,0,1-6.384-1.058l-5.717-1.949a2.943,2.943,0,0,0-.323-.09V160.841a2.983,2.983,0,0,0,1.319-1.133l.019-.03,7.177-11.863a.691.691,0,0,1,1.084-.087,3.239,3.239,0,0,1,.538,3.628.936.936,0,0,0-.038.086l-2.11,5.153a1.523,1.523,0,0,0,1.41,2.1H198.5a.688.688,0,0,1,.687.687V160.8h0a.688.688,0,0,1-.684.683Z" transform="translate(-161.912 -144.458)" fill="#54aab4"/>
      </g>
    </g>
    <g id="Group_5307" data-name="Group 5307" transform="translate(13.003 64.01)">
      <g id="Group_5306" data-name="Group 5306">
        <path id="Path_6121" data-name="Path 6121" d="M140.436,101.481a5.513,5.513,0,0,1-.6-5.308,8.588,8.588,0,0,0-3.772-10.779,5.514,5.514,0,0,1-2.842-4.523,8.587,8.587,0,0,0-8.075-8.075,5.514,5.514,0,0,1-4.523-2.842,8.589,8.589,0,0,0-10.779-3.772,5.514,5.514,0,0,1-5.308-.6,8.588,8.588,0,0,0-11.348,1.279,5.514,5.514,0,0,1-5.042,1.764A8.588,8.588,0,0,0,78.48,74.7a5.513,5.513,0,0,1-3.78,3.78,8.588,8.588,0,0,0-6.076,9.67,5.513,5.513,0,0,1-1.764,5.042,8.588,8.588,0,0,0-1.279,11.348,5.513,5.513,0,0,1,.6,5.308,8.588,8.588,0,0,0,3.772,10.779,5.514,5.514,0,0,1,2.842,4.523,8.587,8.587,0,0,0,8.075,8.075,5.514,5.514,0,0,1,4.523,2.842,8.589,8.589,0,0,0,10.779,3.772,5.514,5.514,0,0,1,5.308.6,8.587,8.587,0,0,0,11.348-1.279,5.514,5.514,0,0,1,5.042-1.764,8.589,8.589,0,0,0,9.67-6.076,5.513,5.513,0,0,1,3.777-3.777,8.588,8.588,0,0,0,6.076-9.67,5.513,5.513,0,0,1,1.764-5.042A8.588,8.588,0,0,0,140.436,101.481Zm-3.314,9.08a8.546,8.546,0,0,0-2.734,7.814,5.541,5.541,0,0,1-3.92,6.239,8.547,8.547,0,0,0-5.854,5.854,5.54,5.54,0,0,1-6.239,3.92,8.545,8.545,0,0,0-7.814,2.734,5.54,5.54,0,0,1-7.322.825,8.547,8.547,0,0,0-8.227-.927,5.542,5.542,0,0,1-6.955-2.434,8.545,8.545,0,0,0-7.01-4.4,5.541,5.541,0,0,1-5.21-5.21,8.546,8.546,0,0,0-4.4-7.01A5.541,5.541,0,0,1,69,111.008a8.545,8.545,0,0,0-.927-8.227A5.54,5.54,0,0,1,68.9,95.46a8.546,8.546,0,0,0,2.734-7.814,5.541,5.541,0,0,1,3.92-6.238,8.547,8.547,0,0,0,5.854-5.854,5.539,5.539,0,0,1,6.239-3.92A8.543,8.543,0,0,0,95.459,68.9a5.54,5.54,0,0,1,7.322-.825,8.545,8.545,0,0,0,8.227.927,5.541,5.541,0,0,1,6.955,2.434,8.545,8.545,0,0,0,7.01,4.4,5.541,5.541,0,0,1,5.21,5.21h0a8.546,8.546,0,0,0,4.4,7.01,5.54,5.54,0,0,1,2.434,6.954,8.545,8.545,0,0,0,.927,8.227,5.54,5.54,0,0,1-.822,7.324Z" transform="translate(-64.01 -64.01)" fill="#54aab4"/>
      </g>
    </g>
  </g>
</svg>
