<svg xmlns="http://www.w3.org/2000/svg" width="70.559" height="74" viewBox="0 0 70.559 74">
  <g id="Group_10979" data-name="Group 10979" transform="translate(-784 -990)">
    <g id="telephone-call" transform="translate(782.932 990)">
      <g id="Group_10968" data-name="Group 10968" transform="translate(1.069 0)">
        <g id="Group_10967" data-name="Group 10967" transform="translate(0 0)">
          <path id="Path_62900" data-name="Path 62900" d="M53.8,59.93l-4.978-8.6a3.241,3.241,0,0,0-4.639-1.245L38.3,53.481a3.193,3.193,0,0,1-1.7.453,3.376,3.376,0,0,1-2.942-1.7L16.913,23.044a3.492,3.492,0,0,1,1.245-4.639l5.884-3.394a3.436,3.436,0,0,0,1.245-4.639L20.194,1.659A3.347,3.347,0,0,0,15.555.528L10.69,3.357A19.079,19.079,0,0,0,1.752,14.9,18.537,18.537,0,0,0,3.675,29.38L21.665,60.5A19.1,19.1,0,0,0,38.185,70a18.758,18.758,0,0,0,9.5-2.6l4.865-2.829A3.436,3.436,0,0,0,53.8,59.93Z" transform="translate(0.931 4)" fill="#95dde6"/>
          <path id="Path_62895" data-name="Path 62895" d="M53.8,59.93l-4.978-8.6a3.241,3.241,0,0,0-4.639-1.245L38.3,53.481a3.193,3.193,0,0,1-1.7.453,3.376,3.376,0,0,1-2.942-1.7L16.913,23.044a3.492,3.492,0,0,1,1.245-4.639l5.884-3.394a3.436,3.436,0,0,0,1.245-4.639L20.194,1.659A3.347,3.347,0,0,0,15.555.528L10.69,3.357A19.079,19.079,0,0,0,1.752,14.9,18.537,18.537,0,0,0,3.675,29.38L21.665,60.5A19.1,19.1,0,0,0,38.185,70a18.758,18.758,0,0,0,9.5-2.6l4.865-2.829A3.436,3.436,0,0,0,53.8,59.93ZM16.687,2.452a1.18,1.18,0,0,1,1.584.453l5.092,8.712A1.145,1.145,0,0,1,22.91,13.2l-1.924,1.131L14.764,3.583ZM46.558,65.587a16.74,16.74,0,0,1-22.969-6.223L5.6,28.249A16.835,16.835,0,0,1,3.9,15.463,16.5,16.5,0,0,1,11.709,5.28l1.018-.566L18.95,15.463l-1.924,1.131a5.583,5.583,0,0,0-2.037,7.694L31.848,53.48a5.706,5.706,0,0,0,4.865,2.829,5.106,5.106,0,0,0,2.829-.792l1.924-1.131,6.223,10.749Zm4.865-2.829L49.5,63.89,43.276,53.141,45.2,52.01a1.145,1.145,0,0,1,1.584.453l5.092,8.712A1.119,1.119,0,0,1,51.423,62.759Z" transform="translate(-1.069 0)" fill="#3c4ae4"/>
        </g>
      </g>
      <g id="Group_10970" data-name="Group 10970" transform="translate(34.225 14.898)">
        <g id="Group_10969" data-name="Group 10969">
          <path id="Path_62905" data-name="Path 62905" d="M-13821.974,4893.328l11.408-4.875h20.491s2.092,2.109,1.542,6.365a5.077,5.077,0,0,1-4.108,4.7l-13.8.174v7.534Z" transform="translate(13825.844 -4876.897)" fill="#95dde6"/>
          <path id="Path_62896" data-name="Path 62896" d="M268.978,115.038H256.645V107L239.22,121.714l17.424,14.822V128.5h12.333a6.809,6.809,0,0,0,6.789-6.789A6.713,6.713,0,0,0,268.978,115.038Zm0,11.2h-14.6v5.431l-11.767-9.957,11.767-9.844V117.3h14.6a4.539,4.539,0,0,1,4.526,4.526A4.444,4.444,0,0,1,268.978,126.24Z" transform="translate(-239.22 -107.005)" fill="#3c4ae4"/>
        </g>
      </g>
      <g id="Group_10972" data-name="Group 10972" transform="translate(61.719 28.475)">
        <g id="Group_10971" data-name="Group 10971">
          <rect id="Rectangle_3021" data-name="Rectangle 3021" width="2.263" height="2.263" fill="#5462e6"/>
        </g>
      </g>
      <g id="Group_10974" data-name="Group 10974" transform="translate(57.306 28.475)">
        <g id="Group_10973" data-name="Group 10973">
          <rect id="Rectangle_3022" data-name="Rectangle 3022" width="2.263" height="2.263" fill="#5462e6"/>
        </g>
      </g>
      <g id="Group_10976" data-name="Group 10976" transform="translate(52.781 28.475)">
        <g id="Group_10975" data-name="Group 10975">
          <rect id="Rectangle_3023" data-name="Rectangle 3023" width="2.263" height="2.263" fill="#5462e6"/>
        </g>
      </g>
    </g>
  </g>
</svg>
