<svg xmlns="http://www.w3.org/2000/svg" width="72" height="72" viewBox="0 0 72 72">
  <g id="checked" transform="translate(0 0)">
    <g id="Group_5286" data-name="Group 5286">
      <g id="Group_5285" data-name="Group 5285">
        <path id="Path_6079" data-name="Path 6079" d="M61.456,10.544a36,36,0,1,0,0,50.912,36,36,0,0,0,0-50.912ZM36,69.132A33.132,33.132,0,1,1,69.132,36,33.132,33.132,0,0,1,36,69.132Z" fill="#0f6671"/>
      </g>
    </g>
    <g id="Group_5288" data-name="Group 5288" transform="translate(12.767 19.078)">
      <g id="Group_5287" data-name="Group 5287">
        <path id="Path_6080" data-name="Path 6080" d="M134.5,137.134a5.026,5.026,0,0,0-7.1,0l-21.12,21.12-6.921-6.92a5.02,5.02,0,1,0-7.1,7.1l10.47,10.47a5.02,5.02,0,0,0,7.1,0l24.671-24.67A5.026,5.026,0,0,0,134.5,137.134Zm-2.028,5.071L107.8,166.874a2.151,2.151,0,0,1-3.042,0L94.286,156.4a2.151,2.151,0,1,1,3.042-3.042l7.935,7.935a1.434,1.434,0,0,0,2.029,0l22.134-22.134a2.152,2.152,0,0,1,3.043,3.043Z" transform="translate(-90.789 -135.667)" fill="#0f6671"/>
      </g>
    </g>
    <g id="Group_5290" data-name="Group 5290" transform="translate(34.566 41.88)">
      <g id="Group_5289" data-name="Group 5289">
        <path id="Path_6081" data-name="Path 6081" d="M276.222,297.859a1.433,1.433,0,0,0-1.744,1.036,28.082,28.082,0,0,1-27.243,21.151,1.434,1.434,0,0,0,0,2.868A30.948,30.948,0,0,0,277.258,299.6,1.434,1.434,0,0,0,276.222,297.859Z" transform="translate(-245.801 -297.814)" fill="#0f6671"/>
      </g>
    </g>
    <g id="Group_5292" data-name="Group 5292" transform="translate(64.084 34.566)">
      <g id="Group_5291" data-name="Group 5291">
        <path id="Path_6082" data-name="Path 6082" d="M457.169,245.8a1.434,1.434,0,0,0-1.434,1.434c0,.41-.009.823-.026,1.229a1.434,1.434,0,0,0,1.371,1.5h.063a1.434,1.434,0,0,0,1.432-1.372c.019-.446.029-.9.029-1.353a1.434,1.434,0,0,0-1.435-1.433Z" transform="translate(-455.707 -245.802)" fill="#0f6671"/>
      </g>
    </g>
  </g>
</svg>
