<svg xmlns="http://www.w3.org/2000/svg" width="71.999" height="76.002" viewBox="0 0 71.999 76.002">
  <g id="Group_5327" data-name="Group 5327" transform="translate(-542 -180.998)">
    <g id="Group_5266" data-name="Group 5266" transform="translate(542 202.769)">
      <g id="Group_5265" data-name="Group 5265">
        <path id="Path_6063" data-name="Path 6063" d="M84.116,197.916H80.858V150.644a4,4,0,0,0-3.992-3.99H69.585a4,4,0,0,0-3.992,3.99v47.272H57.322V172.062a4,4,0,0,0-3.992-3.99H46.049a4,4,0,0,0-3.992,3.99v25.854H33.785v-13.39a4,4,0,0,0-3.992-3.99H22.512a4,4,0,0,0-3.992,3.99v13.39H15.086a1.484,1.484,0,1,0,0,2.969h69.03a1.485,1.485,0,0,0,0-2.969Zm-53.3,0H21.489v-13.39a1.023,1.023,0,0,1,1.022-1.022h7.281a1.023,1.023,0,0,1,1.022,1.022v13.39Zm23.537,0H45.026V172.062a1.023,1.023,0,0,1,1.022-1.022h7.281a1.023,1.023,0,0,1,1.022,1.022Zm23.537,0H68.563V150.644a1.023,1.023,0,0,1,1.022-1.022h7.281a1.023,1.023,0,0,1,1.022,1.022v47.272Z" transform="translate(-13.601 -146.654)" fill="#54aab4"/>
      </g>
    </g>
    <g id="Group_5268" data-name="Group 5268" transform="translate(554.734 181)">
      <g id="Group_5267" data-name="Group 5267">
        <path id="Path_6064" data-name="Path 6064" d="M153.866,1.561A1.48,1.48,0,0,0,152.307,0H143.25a1.484,1.484,0,0,0,0,2.969h5.55L134.117,17.643l-5.537-5.534a1.486,1.486,0,0,0-2.1,0L99.78,38.794a1.485,1.485,0,1,0,2.1,2.1l25.65-25.636,5.537,5.534a1.486,1.486,0,0,0,2.1,0L150.9,5.068v5.019a1.485,1.485,0,1,0,2.97,0V1.633C153.869,1.609,153.867,1.585,153.866,1.561Z" transform="translate(-99.346)" fill="#54aab4"/>
      </g>
    </g>
    <g id="Group_5270" data-name="Group 5270" transform="translate(549.729 224.538)">
      <g id="Group_5269" data-name="Group 5269">
        <ellipse id="Ellipse_1184" data-name="Ellipse 1184" cx="1.485" cy="1.484" rx="1.485" ry="1.484" transform="translate(0 0)" fill="#54aab4"/>
      </g>
    </g>
  </g>
</svg>
