<svg xmlns="http://www.w3.org/2000/svg" width="83.942" height="69.544" viewBox="0 0 83.942 69.544">
  <g id="ISO_9001-2015" transform="translate(-57.644 -39.027)">
    <path id="Path_6175" data-name="Path 6175" d="M77.078,157.013v-7.446H57.644v7.446H62.1V172.94H57.644v7.446H77.078V172.94H72.619V157.013Z" transform="translate(0 -91.227)" fill="#54aab4"/>
    <path id="Path_6176" data-name="Path 6176" d="M198.884,159.893c-1.2-.349-7.382-2.118-8.452-2.468s-1.944-.852-1.944-1.485.983-1.31,2.97-1.31a12.018,12.018,0,0,1,9.279,3.866s.339.452.453.614h6.047V148.563h-6.492v1.919a18.017,18.017,0,0,0-9.833-2.732c-7.491,0-11.662,3.887-11.662,9.7s5.263,8.212,6.727,8.823,7.185,2.228,9.631,2.992,3.341,1.31,3.341,1.7-1.07,1.42-4.128,1.42a10.876,10.876,0,0,1-8.55-3.749h0c-.153-.205-.333-.448-.394-.539s-.234-.34-.348-.5h-6.047v11.262h6.789V176.5a18.839,18.839,0,0,0,9.686,3.048c5.416,0,12.317-2.359,12.317-9.719S200.085,160.242,198.884,159.893Z" transform="translate(-100.36 -89.727)" fill="#54aab4"/>
    <path id="Path_6177" data-name="Path 6177" d="M366.407,147.157c-9.029,0-16.434,4.514-16.434,16.038s8.039,15.84,16.474,15.84,16.394-4.277,16.394-15.721S374.882,147.157,366.407,147.157Zm.079,24.2c-3.089,0-5.069-.713-5.069-8.2s1.465-8.276,5.188-8.276c2.257,0,4.99.158,4.99,8.039s-2.02,8.433-5.109,8.433Z" transform="translate(-241.255 -89.238)" fill="#54aab4"/>
    <g id="Group_76975" data-name="Group 76975" transform="translate(69.332 39.027)">
      <path id="Path_6178" data-name="Path 6178" d="M125.8,54.941a34.01,34.01,0,0,1,7.387-7.86,29.931,29.931,0,0,0,3.68,2.323c-2.166,2.415-4.107,5.09-4.428,5.537h1.3c.78-1.051,2.394-3.167,4.1-5.042a33.716,33.716,0,0,0,5.9,2.232c-.549,1.165-.964,2.183-1.207,2.81h1.129c.259-.646.64-1.546,1.114-2.542a37.7,37.7,0,0,0,8.208,1.058v1.484h1.048V53.463a37.893,37.893,0,0,0,8.163-.939c.447.945.807,1.8,1.055,2.418h1.129c-.234-.6-.626-1.565-1.143-2.672a33.994,33.994,0,0,0,6.011-2.174c1.636,1.825,3.166,3.832,3.919,4.847h1.3c-.312-.434-2.152-2.971-4.243-5.33a30.1,30.1,0,0,0,4.075-2.53,34.006,34.006,0,0,1,7.387,7.86h1.261a34.744,34.744,0,0,0-58.4,0Zm18.4-3.769a32.824,32.824,0,0,1-5.618-2.074c.241-.251.482-.493.72-.723a53.524,53.524,0,0,1,7.3-5.47,12.941,12.941,0,0,0,2.312.983c-.641.84-1.9,2.546-3.269,4.71-.53.842-1.016,1.727-1.445,2.575Zm8.776,1.236a36.719,36.719,0,0,1-7.732-.972c.388-.759.821-1.539,1.289-2.278,1.579-2.493,3-4.364,3.478-4.973a16.15,16.15,0,0,0,2.966.409Zm1.048.005V44.607a16.366,16.366,0,0,0,2.945-.314c.542.7,1.9,2.505,3.4,4.867.492.777.946,1.6,1.349,2.4a36.9,36.9,0,0,1-7.687.854Zm8.74-1.107a30.964,30.964,0,0,0-1.515-2.709c-1.3-2.052-2.5-3.693-3.166-4.574a13.446,13.446,0,0,0,2.467-.955,52.158,52.158,0,0,1,7.043,5.305c.3.287.6.594.9.912a33.085,33.085,0,0,1-5.727,2.022Zm10.648-4.882a29.237,29.237,0,0,1-3.927,2.382c-.387-.415-.777-.815-1.163-1.188a50.386,50.386,0,0,0-6.748-5.139,9.6,9.6,0,0,0,1.419-1.115,33.615,33.615,0,0,1,10.421,5.062ZM153.74,40.075a33.677,33.677,0,0,1,8.035.97,14.079,14.079,0,0,1-16.073,0,33.679,33.679,0,0,1,8.038-.97Zm-9.254,1.291a9.41,9.41,0,0,0,1.131.925,51.692,51.692,0,0,0-7.042,5.329c-.323.311-.648.643-.973.986a29.1,29.1,0,0,1-3.536-2.18,33.61,33.61,0,0,1,10.421-5.06Z" transform="translate(-124.541 -39.027)" fill="#54aab4"/>
      <path id="Path_6179" data-name="Path 6179" d="M181.684,345.946a34.009,34.009,0,0,1-7.206,7.72A30.026,30.026,0,0,0,170.222,351c1.814-2.046,3.439-4.227,4.041-5.051h-1.3c-.8,1.074-2.213,2.9-3.712,4.569a33.949,33.949,0,0,0-6.011-2.175c.444-.951.795-1.793,1.033-2.394h-1.133c-.24.586-.559,1.329-.943,2.14a37.912,37.912,0,0,0-8.163-.938v-1.2h-1.048v1.207a37.717,37.717,0,0,0-8.208,1.057c-.41-.859-.749-1.648-1-2.263H142.64c.25.63.623,1.525,1.1,2.532a33.675,33.675,0,0,0-5.9,2.231c-1.563-1.723-3.051-3.647-3.887-4.763h-1.3c.622.852,2.339,3.155,4.228,5.26a29.915,29.915,0,0,0-3.862,2.459,34,34,0,0,1-7.206-7.72h-1.259a34.743,34.743,0,0,0,58.4,0H181.69ZM162.771,349.3a33.039,33.039,0,0,1,5.731,2.021c-.3.318-.6.625-.9.913a52.157,52.157,0,0,1-7.034,5.3,13.3,13.3,0,0,0-2.471-.956c.668-.883,1.864-2.52,3.16-4.566A30.912,30.912,0,0,0,162.771,349.3Zm-8.74-1.105a36.924,36.924,0,0,1,7.69.857c-.4.8-.857,1.62-1.35,2.4-1.493,2.358-2.848,4.16-3.392,4.863A16.5,16.5,0,0,0,154.03,356v-7.8Zm-1.048.005v7.813a16.236,16.236,0,0,0-2.97.405c-.478-.613-1.9-2.48-3.474-4.969-.468-.739-.9-1.52-1.29-2.279a36.726,36.726,0,0,1,7.733-.97Zm-8.776,1.235c.427.848.914,1.733,1.447,2.575,1.369,2.162,2.627,3.867,3.268,4.708a12.8,12.8,0,0,0-2.312.984,53.559,53.559,0,0,1-7.3-5.469c-.238-.23-.479-.473-.721-.724a32.755,32.755,0,0,1,5.617-2.072Zm-10.324,4.886a29.021,29.021,0,0,1,3.725-2.32c.325.343.651.675.974.987a51.683,51.683,0,0,0,7.041,5.328,9.289,9.289,0,0,0-1.344,1.139,33.629,33.629,0,0,1-10.4-5.132Zm19.863,6.489a33.672,33.672,0,0,1-8.288-1.032,13.927,13.927,0,0,1,16.575,0,33.663,33.663,0,0,1-8.288,1.034Zm9.467-1.355a9.452,9.452,0,0,0-1.626-1.332,50.328,50.328,0,0,0,6.742-5.135c.386-.372.776-.773,1.163-1.188a29.182,29.182,0,0,1,4.116,2.521,33.616,33.616,0,0,1-10.4,5.136Z" transform="translate(-124.545 -292.323)" fill="#54aab4"/>
    </g>
  </g>
</svg>
