<svg xmlns="http://www.w3.org/2000/svg" width="70.001" height="70" viewBox="0 0 70.001 70">
  <g id="Group_10978" data-name="Group 10978" transform="translate(-320 -1004)">
    <rect id="Rectangle_3024" data-name="Rectangle 3024" width="24" height="24" rx="12" transform="translate(345 1018)" fill="#95dde6"/>
    <path id="Path_62904" data-name="Path 62904" d="M30.546,2.39,58.371,22.513,0,24Z" transform="translate(330 1049)" fill="#95dde6"/>
    <g id="email" transform="translate(319.999 1003.996)">
      <g id="Group_10966" data-name="Group 10966" transform="translate(0.001 0.004)">
        <g id="Group_10965" data-name="Group 10965" transform="translate(0 0)">
          <path id="Path_62893" data-name="Path 62893" d="M69.988,26.765a1.1,1.1,0,0,0-.048-.237,1.166,1.166,0,0,0-.066-.2,1.047,1.047,0,0,0-.117-.179,1.1,1.1,0,0,0-.155-.181c-.019-.016-.027-.039-.047-.055L58.335,17.2V8.167a3.5,3.5,0,0,0-3.5-3.5H42.19L37.128.736a3.46,3.46,0,0,0-4.255,0L27.809,4.667H15.165a3.5,3.5,0,0,0-3.5,3.5V17.2L.448,25.913c-.02.016-.028.039-.047.055a1.094,1.094,0,0,0-.155.181,1.041,1.041,0,0,0-.117.179,1.151,1.151,0,0,0-.066.2,1.106,1.106,0,0,0-.048.233c0,.024-.014.046-.014.07V66.5a3.461,3.461,0,0,0,.685,2.059c.007.011.008.023.016.033s.026.02.037.033A3.483,3.483,0,0,0,3.5,70h63a3.484,3.484,0,0,0,2.768-1.381c.009-.012.023-.015.031-.027s.009-.022.016-.033A3.462,3.462,0,0,0,70,66.5V26.835C70,26.81,69.989,26.789,69.988,26.765ZM34.3,2.577a1.119,1.119,0,0,1,1.392,0l2.692,2.09H31.616ZM3.792,67.671,34.3,43.973a1.12,1.12,0,0,1,1.392,0l30.516,23.7Zm63.877-1.819L37.128,42.132a3.462,3.462,0,0,0-4.255,0L2.331,65.852V28.612L21.45,43.459a1.167,1.167,0,1,0,1.43-1.845L3.457,26.532l8.208-6.379v9.015a1.167,1.167,0,1,0,2.333,0v-21A1.167,1.167,0,0,1,15.165,7H54.834A1.167,1.167,0,0,1,56,8.167v21a1.167,1.167,0,1,0,2.333,0V20.153l8.208,6.379L47.085,41.641a1.167,1.167,0,1,0,1.43,1.843L67.668,28.612v37.24Z" transform="translate(-0.001 -0.004)" fill="#CC3300"/>
          <path id="Path_62894" data-name="Path 62894" d="M181.576,86.9V82.238a14,14,0,1,0-14,14,1.167,1.167,0,0,0,0-2.333,11.667,11.667,0,1,1,11.667-11.667v4.667a2.334,2.334,0,1,1-4.667,0V82.238a1.167,1.167,0,0,0-2.333,0,4.667,4.667,0,1,1-4.667-4.667,1.167,1.167,0,1,0,0-2.333A7,7,0,1,0,172.292,87.4a4.654,4.654,0,0,0,9.284-.492Z" transform="translate(-132.576 -58.908)" fill="#CC3300"/>
        </g>
      </g>
    </g>
  </g>
</svg>
