<svg xmlns="http://www.w3.org/2000/svg" width="72.225" height="72.205" viewBox="0 0 72.225 72.205">
  <g id="Group_5309" data-name="Group 5309" transform="translate(0.122 0.102)">
    <g id="Group_5308" data-name="Group 5308">
      <path id="Path_6122" data-name="Path 6122" d="M91.434,340.351a15.568,15.568,0,0,0-15.6,15.6,1.134,1.134,0,0,0,1.2,1.2h28.8a1.134,1.134,0,0,0,1.2-1.2,15.568,15.568,0,0,0-15.6-15.6Zm-13.2,14.4a13.259,13.259,0,0,1,26.4,0Z" transform="translate(-65.031 -292.351)" fill="#54aab4" stroke="#fff" stroke-width="0.2"/>
      <path id="Path_6123" data-name="Path 6123" d="M50.632,310.75h-2.4A22.676,22.676,0,0,0,40.4,294.768c-.028-.034-.057-.067-.089-.1a1.275,1.275,0,0,0-.268-.2A22.806,22.806,0,0,0,2.635,310.75H.235a1.134,1.134,0,0,0-1.2,1.2v7.2a1.134,1.134,0,0,0,1.2,1.2h50.4a1.134,1.134,0,0,0,1.2-1.2v-7.2a1.134,1.134,0,0,0-1.2-1.2Zm-1.2,7.2h-3.6v-1.2a1.2,1.2,0,1,0-2.4,0v1.2h-7.2v-1.2a1.2,1.2,0,1,0-2.4,0v1.2h-7.2v-1.2a1.2,1.2,0,1,0-2.4,0v1.2h-7.2v-1.2a1.2,1.2,0,1,0-2.4,0v1.2h-7.2v-1.2a1.134,1.134,0,0,0-1.2-1.2,1.134,1.134,0,0,0-1.2,1.2v1.2h-3.6v-4.8h2.4a1.134,1.134,0,0,0,1.2-1.2,20.34,20.34,0,0,1,6.334-14.785l1.225,1.225a1.188,1.188,0,1,0,1.68-1.68l-1.085-1.085a20.3,20.3,0,0,1,11.045-4.039v1.164a1.2,1.2,0,1,0,2.4,0v-1.164a20.3,20.3,0,0,1,11.045,4.039l-1.085,1.085a1.188,1.188,0,1,0,1.68,1.68l1.225-1.225A20.34,20.34,0,0,1,45.83,311.95a1.134,1.134,0,0,0,1.2,1.2h2.4v4.8Z" transform="translate(0.97 -248.35)" fill="#54aab4" stroke="#fff" stroke-width="0.2"/>
      <path id="Path_6124" data-name="Path 6124" d="M407.167-.983h-14.4a1.134,1.134,0,0,0-1.2,1.2v69.6a1.134,1.134,0,0,0,1.2,1.2h14.4a1.134,1.134,0,0,0,1.2-1.2V.217a1.134,1.134,0,0,0-1.2-1.2Zm-1.2,69.6h-12v-2.4h6a1.2,1.2,0,1,0,0-2.4h-6v-3.6h3.6a1.2,1.2,0,1,0,0-2.4h-3.6v-3.6h6a1.2,1.2,0,1,0,0-2.4h-6v-3.6h3.6a1.2,1.2,0,1,0,0-2.4h-3.6v-3.6h6a1.2,1.2,0,1,0,0-2.4h-6v-3.6h3.6a1.2,1.2,0,1,0,0-2.4h-3.6v-3.6h6a1.2,1.2,0,1,0,0-2.4h-6v-3.6h3.6a1.2,1.2,0,1,0,0-2.4h-3.6v-3.6h6a1.2,1.2,0,1,0,0-2.4h-6v-3.6h3.6a1.134,1.134,0,0,0,1.2-1.2,1.134,1.134,0,0,0-1.2-1.2h-3.6v-8.4h12Z" transform="translate(-336.367 0.983)" fill="#54aab4" stroke="#fff" stroke-width="0.2"/>
      <path id="Path_6125" data-name="Path 6125" d="M.2,47.2a.9.9,0,0,0,.6-.12L21.559,34.84a1.239,1.239,0,0,0,.463-.465L40.814,15.354a1.3,1.3,0,0,0,.548-.314l4.08-4.2a5.584,5.584,0,0,0,0-7.68l-2.4-2.4a5.583,5.583,0,0,0-7.679,0l-4.2,4.08h0L11.931,24.192a1.024,1.024,0,0,0-.424.407.934.934,0,0,0-.274.462L-.875,45.4a1.276,1.276,0,0,0,.24,1.44A1.089,1.089,0,0,0,.2,47.2ZM12.987,26.777A11.6,11.6,0,0,1,17.3,29.92l.017.02c.1.121.2.245.3.37l.1.122c.072.094.142.189.212.284.045.062.091.124.135.187s.107.157.16.236.1.154.154.233.088.144.132.216.1.169.154.256c.09.157.178.315.262.476l.458.973L11.5,37.949l-3.169-3.34Zm-9.3,15.744,3.48-5.88,2.4,2.4Zm17.639-10.8-.24-.48a13.989,13.989,0,0,0-6.456-6.384L31.643,7.721a17.055,17.055,0,0,0,6.84,6.84ZM37.042,2.441a3.284,3.284,0,0,1,4.32,0l2.4,2.4a3.284,3.284,0,0,1,0,4.32L40.224,12.7a14.487,14.487,0,0,1-6.758-6.681Z" transform="translate(1 0.799)" fill="#54aab4" stroke="#fff" stroke-width="0.2"/>
      <path id="Path_6126" data-name="Path 6126" d="M445.168,37.95a2.4,2.4,0,1,0-2.4-2.4A2.4,2.4,0,0,0,445.168,37.95Z" transform="translate(-380.367 -28.35)" fill="#54aab4" stroke="#fff" stroke-width="0.2"/>
    </g>
  </g>
</svg>
