<svg xmlns="http://www.w3.org/2000/svg" width="69.06" height="74.606" viewBox="0 0 69.06 74.606">
  <g id="Group_10980" data-name="Group 10980" transform="translate(-1247 -990)">
    <g id="skype" transform="translate(1243.562 990)">
      <path id="Path_62897" data-name="Path 62897" d="M78,50.94A31.625,31.625,0,0,0,41.721,13.012,18.327,18.327,0,0,0,16.158,37.8,31.629,31.629,0,0,0,52.914,75.235,18.331,18.331,0,0,0,78,50.94ZM65.549,52.209C65.548,54.813,65.549,50.033,65.549,52.209Z" transform="translate(-7.805 -2.805)" fill="#95dde6"/>
      <g id="Group_10977" data-name="Group 10977" transform="translate(3.438)">
        <path id="Path_62898" data-name="Path 62898" d="M52.774,70a19.772,19.772,0,0,1-8.889-2.114,33.319,33.319,0,0,1-5.564.469,33,33,0,0,1-33-33,33.275,33.275,0,0,1,.566-6.117A19.722,19.722,0,0,1,33.2,2.747a33.3,33.3,0,0,1,5.12-.4,33,33,0,0,1,33,33,33.221,33.221,0,0,1-.664,6.605A19.518,19.518,0,0,1,72.5,50.276,19.746,19.746,0,0,1,52.774,70Zm-8.665-4.964a1.393,1.393,0,0,1,.66.166A16.939,16.939,0,0,0,69.709,50.276a16.762,16.762,0,0,0-1.761-7.52,1.394,1.394,0,0,1-.113-.918A30.231,30.231,0,0,0,33.152,5.582a1.4,1.4,0,0,1-.98-.194A16.933,16.933,0,0,0,8.554,28.29a1.394,1.394,0,0,1,.164.985A30.236,30.236,0,0,0,43.855,65.059,1.381,1.381,0,0,1,44.108,65.036Zm-5.876-6.574a25.472,25.472,0,0,1-11.97-2.537,16.229,16.229,0,0,1-5.7-5.055,11.436,11.436,0,0,1-2.272-6.506,5.38,5.38,0,0,1,1.758-4A5.994,5.994,0,0,1,24.3,38.758a5.544,5.544,0,0,1,3.684,1.3,8.529,8.529,0,0,1,2.237,3.226,14.554,14.554,0,0,0,1.645,2.924,5.633,5.633,0,0,0,2.134,1.629A9.557,9.557,0,0,0,38,48.52,9.793,9.793,0,0,0,43.581,47.1a3.192,3.192,0,0,0,1.731-2.792,2.5,2.5,0,0,0-.78-1.981A7.265,7.265,0,0,0,41.7,40.785c-1.4-.435-3.3-.907-5.67-1.4a47.889,47.889,0,0,1-8.5-2.544l-.052-.022a15.022,15.022,0,0,1-5.962-4.382,11.226,11.226,0,0,1-2.35-7.2,11.638,11.638,0,0,1,2.434-7.245,14.721,14.721,0,0,1,6.758-4.718,28.21,28.21,0,0,1,9.758-1.548,26.446,26.446,0,0,1,7.79,1.033,17.706,17.706,0,0,1,5.664,2.836,12.7,12.7,0,0,1,3.443,3.893,8.984,8.984,0,0,1,1.155,4.266,5.925,5.925,0,0,1-5.937,5.8,5.325,5.325,0,0,1-3.647-1.2,11.356,11.356,0,0,1-2.168-2.855l-.028-.051a9.066,9.066,0,0,0-2.446-3.049c-.56-.426-1.784-.934-4.433-.934a8.564,8.564,0,0,0-4.712,1.124c-1.191.781-1.329,1.438-1.329,1.863a1.411,1.411,0,0,0,.315.957,4.32,4.32,0,0,0,1.429,1.067,12.576,12.576,0,0,0,2.292.889c.857.238,2.3.593,4.305,1.055,2.145.461,4.169.974,6.014,1.525.41.122.768.232,1.095.337a23.941,23.941,0,0,1,5.743,2.629,12.161,12.161,0,0,1,4.018,4.249,12.618,12.618,0,0,1,1.464,6.25,13.359,13.359,0,0,1-2.467,7.859h0a15.783,15.783,0,0,1-7.025,5.355A27.147,27.147,0,0,1,38.232,58.462ZM24.3,41.546a3.254,3.254,0,0,0-2.343.848,2.588,2.588,0,0,0-.88,1.969,8.729,8.729,0,0,0,1.775,4.917,13.457,13.457,0,0,0,4.721,4.186,22.76,22.76,0,0,0,10.654,2.207,24.382,24.382,0,0,0,9.342-1.63,13.053,13.053,0,0,0,5.818-4.39,10.62,10.62,0,0,0,1.956-6.25,9.89,9.89,0,0,0-1.106-4.882,9.4,9.4,0,0,0-3.109-3.279,21.177,21.177,0,0,0-5.071-2.31c-.308-.1-.65-.2-1.042-.321-1.779-.531-3.735-1.027-5.813-1.473l-.021,0c-2.045-.472-3.537-.838-4.432-1.087a15.35,15.35,0,0,1-2.8-1.084,7.059,7.059,0,0,1-2.336-1.793,4.185,4.185,0,0,1-.946-2.724,4.961,4.961,0,0,1,2.589-4.2,11.243,11.243,0,0,1,6.241-1.58c2.79,0,4.792.492,6.122,1.5a11.791,11.791,0,0,1,3.212,3.943,9.02,9.02,0,0,0,1.59,2.143,2.821,2.821,0,0,0,1.8.5,2.955,2.955,0,0,0,2.241-.929,2.921,2.921,0,0,0,.907-2.084,6.24,6.24,0,0,0-.822-2.945,9.959,9.959,0,0,0-2.7-3.017,14.957,14.957,0,0,0-4.776-2.371,23.707,23.707,0,0,0-6.962-.907,25.465,25.465,0,0,0-8.791,1.375,12,12,0,0,0-5.512,3.8,8.909,8.909,0,0,0-1.859,5.548,8.515,8.515,0,0,0,1.74,5.464,12.279,12.279,0,0,0,4.886,3.561l0,0,.02.008a45.051,45.051,0,0,0,8.005,2.389c2.448.512,4.443,1.007,5.922,1.468a10.007,10.007,0,0,1,3.91,2.173A5.279,5.279,0,0,1,48.1,44.311a6.012,6.012,0,0,1-2.947,5.1A12.483,12.483,0,0,1,38,51.308a12.224,12.224,0,0,1-5.187-.952,8.366,8.366,0,0,1-3.167-2.469,17.344,17.344,0,0,1-1.981-3.5,5.839,5.839,0,0,0-1.477-2.2A2.8,2.8,0,0,0,24.3,41.546Z" transform="translate(-3.438)" fill="#CC3300"/>
        <path id="Path_62899" data-name="Path 62899" d="M355.587,373.4a1.394,1.394,0,0,1,0-2.789,11.569,11.569,0,0,0,10.428-6.475,1.394,1.394,0,1,1,2.5,1.238A14.341,14.341,0,0,1,355.587,373.4Zm12.995-12.131c-.032,0-.063,0-.1,0a1.394,1.394,0,0,1-1.3-1.485c.018-.265.027-.533.027-.8a1.394,1.394,0,0,1,2.789,0c0,.327-.011.659-.033.986A1.394,1.394,0,0,1,368.582,361.269Z" transform="translate(-306.238 -308.699)" fill="#CC3300"/>
      </g>
    </g>
  </g>
</svg>
