<svg xmlns="http://www.w3.org/2000/svg" width="72.507" height="75.66" viewBox="0 0 72.507 75.66">
  <g id="sprout" transform="translate(-12.411 0.409)">
    <g id="Group_5294" data-name="Group 5294" transform="translate(12.661)">
      <path id="Path_6114" data-name="Path 6114" d="M84.5,53.8a1.383,1.383,0,0,0-.924-.7c-.1-.022-8.132-1.776-18.368-3.177a1.309,1.309,0,0,0-.044-.138c-4.514-10.428-6.008-10.428-6.811-10.428-.968,0-5.777.979-9.692,1.811V31.129a1.392,1.392,0,0,0,.175-.012,15.89,15.89,0,0,0,4.054.529A15.723,15.723,0,0,0,63.967,27.09a15.388,15.388,0,0,0,3.87-15.658,1.377,1.377,0,0,0-.905-.9A15.676,15.676,0,0,0,49.383,16.42,18.654,18.654,0,0,0,43.974,5.5,19.042,19.042,0,0,0,24.865.874a1.377,1.377,0,0,0-.9.9A18.6,18.6,0,0,0,28.641,20.7a19,19,0,0,0,13.385,5.5,19.166,19.166,0,0,0,3.871-.4V41.761l-1.4.306c-2.9-.553-7.663-1.159-9.27.431l-2.538,2.513-3.85,1.269c-4.668,1.541-6.268,8.371-6.443,9.185a30.685,30.685,0,0,1-4.655-3.419,1.392,1.392,0,0,0-.926-.352c-3.066,0-4.154,1.477-4.154,2.742,0,.4,0,1.13,2.91,4.473a68.326,68.326,0,0,0,6.738,6.672c4.983,4.3,12.4,9.42,19.429,9.42a60.3,60.3,0,0,0,18.119-2.919,22.755,22.755,0,0,1,5.419-1.194A107.852,107.852,0,0,0,77.966,69.5a1.382,1.382,0,0,0,1.058-.843l5.539-13.71A1.359,1.359,0,0,0,84.5,53.8ZM53.076,16.307A12.971,12.971,0,0,1,65.4,12.953a12.673,12.673,0,0,1-3.387,12.2,12.955,12.955,0,0,1-11.189,3.58c1.124-1.844,2.7-3.962,4-4.6a1.365,1.365,0,0,0,.619-1.839,1.392,1.392,0,0,0-1.858-.613,13.067,13.067,0,0,0-4.275,4.3,12.684,12.684,0,0,1,3.766-9.674Zm-13.49-.489c3.632,2.4,4.943,7.34,4.964,7.42v.011a16.233,16.233,0,0,1-13.958-4.5A15.878,15.878,0,0,1,26.4,3.288,16.256,16.256,0,0,1,42.017,7.444a15.883,15.883,0,0,1,4.616,13.343,15.67,15.67,0,0,0-5.511-7.25,1.393,1.393,0,0,0-1.92.38,1.363,1.363,0,0,0,.383,1.9ZM25.1,56.075c.341-1.69,1.836-6.276,4.619-7.194l4.154-1.371a1.389,1.389,0,0,0,.541-.331l2.747-2.72c.68-.415,4.037-.248,7.079.353a1.4,1.4,0,0,0,.572-.006c5.5-1.211,11.616-2.47,13.229-2.679a42.21,42.21,0,0,1,3.981,7.379c-1.607-.2-3.249-.382-4.91-.547-13.755-1.362-21.672-.187-23.53,3.493a2.206,2.206,0,0,0,.067,2.207c1.146,1.836,5.216,2.519,15.018,2.519,1.4,0,2.043.364,2.174.675A1.109,1.109,0,0,1,50.5,58.9c-.708.417-5.375,1.751-12.1,1.332a36.4,36.4,0,0,1-13.648-3.5,1.356,1.356,0,0,0,.347-.662Zm51.644,10.84a97.726,97.726,0,0,1-11.467,1.23,24.055,24.055,0,0,0-6.2,1.305,57.843,57.843,0,0,1-17.338,2.808c-5.987,0-12.589-4.507-17.073-8.288a55.393,55.393,0,0,1-9-9.379,4.6,4.6,0,0,1,.662-.125A37,37,0,0,0,38.725,63c6.287.32,12.411-.853,13.685-2.113a3.8,3.8,0,0,0,.984-4.085c-.37-.884-1.477-2.368-4.732-2.368-8.626,0-11.483-.593-12.4-1.058.876-.983,4.656-3.265,20.566-1.69,10.749,1.064,20.762,2.982,24.548,3.753Z" transform="translate(-12.661)" fill="#0f6671" stroke="#95dde6" stroke-width="0.5"/>
    </g>
  </g>
</svg>
