<svg xmlns="http://www.w3.org/2000/svg" width="71.995" height="81.983" viewBox="0 0 71.995 81.983">
  <g id="usb" transform="translate(-31.902 -0.002)">
    <g id="Group_5333" data-name="Group 5333" transform="translate(48.605 23.553)">
      <g id="Group_5332" data-name="Group 5332">
        <path id="Path_6127" data-name="Path 6127" d="M157.03,155.872a1.208,1.208,0,0,0-1.7,0l-7.665,7.642-2.593-2.585,11.852-11.816a1.2,1.2,0,1,0-1.7-1.7l-11.86,11.817-2.593-2.585,2.385-2.378a1.2,1.2,0,1,0-1.7-1.7l-3.237,3.227a1.2,1.2,0,0,0,0,1.7l3.445,3.434-5.431,5.414a1.2,1.2,0,1,0,1.7,1.7l5.431-5.414,3.445,3.435a1.208,1.208,0,0,0,1.7,0l8.517-8.492a1.2,1.2,0,0,0,0-1.7Z" transform="translate(-135.876 -147.062)" fill="#54aab4"/>
      </g>
    </g>
    <g id="Group_5335" data-name="Group 5335" transform="translate(70.571 29.151)">
      <g id="Group_5334" data-name="Group 5334">
        <path id="Path_6128" data-name="Path 6128" d="M274.673,182.372l-.01-.01a1.207,1.207,0,1,0,.01.01Z" transform="translate(-272.614 -182.013)" fill="#54aab4"/>
      </g>
    </g>
    <g id="Group_5337" data-name="Group 5337" transform="translate(70.789 20.366)">
      <g id="Group_5336" data-name="Group 5336">
        <path id="Path_6129" data-name="Path 6129" d="M276.026,127.523l-.01-.01a1.208,1.208,0,1,0,.01.01Z" transform="translate(-273.967 -127.164)" fill="#54aab4"/>
      </g>
    </g>
    <g id="Group_5339" data-name="Group 5339" transform="translate(56.826 25.718)">
      <g id="Group_5338" data-name="Group 5338">
        <path id="Path_6130" data-name="Path 6130" d="M189.116,160.944l-.01-.01a1.2,1.2,0,1,0,.01.01Z" transform="translate(-187.054 -160.581)" fill="#54aab4"/>
      </g>
    </g>
    <g id="Group_5341" data-name="Group 5341" transform="translate(31.902)">
      <g id="Group_5340" data-name="Group 5340">
        <path id="Path_6131" data-name="Path 6131" d="M103.549,37.73l-6.683-6.663a1.208,1.208,0,0,0-1.7,0L91.513,34.7l-.844-.841a1.208,1.208,0,0,0-1.7,0l-9.658,9.629a1.2,1.2,0,0,0,0,1.7l2.263,2.256L68.612,60.365a1.2,1.2,0,0,0,1.7,1.7l12.962-12.92,2.5,2.488L62.519,74.813A16.389,16.389,0,0,1,37.9,53.272l2.523,2.515a12.868,12.868,0,0,0,19.6,16.538l6.41-6.391a1.2,1.2,0,0,0-1.7-1.7l-6.41,6.391A10.461,10.461,0,0,1,42.16,57.514l3.682,3.671a1.208,1.208,0,0,0,1.7,0L50.2,58.539l1.977,1.971a1.208,1.208,0,0,0,1.7,0L87.916,26.579a1.2,1.2,0,0,0,0-1.7L85.528,22.5l1.463-1.459a1.2,1.2,0,1,0-1.7-1.7L83.824,20.8,72.762,9.772,79.655,2.9,90.718,13.929,89.17,15.472a1.2,1.2,0,1,0,1.7,1.7l2.4-2.392a1.2,1.2,0,0,0,0-1.7L80.507.352a1.208,1.208,0,0,0-1.7,0L71.058,8.073l-2.387-2.38a1.208,1.208,0,0,0-1.7,0l-7.8,7.778a1.2,1.2,0,0,0,1.7,1.7l6.95-6.929L85.36,25.729,53.029,57.962,35.488,40.474l21.5-21.433a1.2,1.2,0,0,0-1.7-1.7L32.932,39.624a1.2,1.2,0,0,0,0,1.7L34.909,43.3l-2.654,2.646a1.2,1.2,0,0,0,0,1.7l3.932,3.92A18.8,18.8,0,0,0,64.223,76.512l23.251-23.18,1.909,1.9a1.208,1.208,0,0,0,1.7,0l9.658-9.629a1.2,1.2,0,0,0,0-1.7l-.844-.841,3.649-3.638a1.2,1.2,0,0,0,0-1.694ZM34.811,46.79l1.8-1.8L48.5,56.84l-1.8,1.8Zm55.424,5.9-8.371-8.346,7.954-7.93,8.371,8.346ZM98.2,41.368,93.217,36.4l2.8-2.788L101,38.577Z" transform="translate(-31.902)" fill="#54aab4"/>
      </g>
    </g>
  </g>
</svg>
