<svg xmlns="http://www.w3.org/2000/svg" width="73.551" height="73.5" viewBox="0 0 73.551 73.5">
  <g id="user_8_" data-name="user (8)" transform="translate(0.775 0.75)">
    <g id="Group_5272" data-name="Group 5272" transform="translate(25.453)">
      <g id="Group_5271" data-name="Group 5271">
        <path id="Path_6065" data-name="Path 6065" d="M201.993,7.452a2.109,2.109,0,0,0-1.713-1.445l-4.74-.673-2.111-4.176a2.109,2.109,0,0,0-3.765,0l-2.111,4.176-4.74.673a2.109,2.109,0,0,0-1.158,3.616l3.4,3.236-.8,4.556a2.109,2.109,0,0,0,3.041,2.242l4.251-2.182,4.251,2.182a2.109,2.109,0,0,0,3.041-2.241l-.8-4.556,3.4-3.236a2.109,2.109,0,0,0,.554-2.172Zm-7.682,3.13a2.109,2.109,0,0,0-.623,1.893l.262,1.49-1.44-.739a2.109,2.109,0,0,0-1.927,0l-1.44.739.262-1.49a2.109,2.109,0,0,0-.623-1.893L187.72,9.571l1.516-.215a2.11,2.11,0,0,0,1.586-1.137l.725-1.434.725,1.434a2.109,2.109,0,0,0,1.586,1.137l1.516.215Z" transform="translate(-181)" fill="#0f6671" stroke="#95dde6" stroke-width="1.5"/>
      </g>
    </g>
    <g id="Group_5274" data-name="Group 5274" transform="translate(50.906 12.797)">
      <g id="Group_5273" data-name="Group 5273">
        <path id="Path_6066" data-name="Path 6066" d="M382.992,98.451a2.109,2.109,0,0,0-1.713-1.445l-4.74-.673-2.111-4.176a2.109,2.109,0,0,0-3.765,0l-2.111,4.176-4.74.673a2.109,2.109,0,0,0-1.158,3.616l3.4,3.236-.8,4.556a2.109,2.109,0,0,0,3.041,2.242l4.251-2.182,4.251,2.182a2.109,2.109,0,0,0,3.041-2.241l-.8-4.556,3.4-3.236A2.109,2.109,0,0,0,382.992,98.451Zm-7.682,3.13a2.109,2.109,0,0,0-.623,1.893l.262,1.49-1.44-.739a2.109,2.109,0,0,0-1.926,0l-1.44.739.262-1.49a2.109,2.109,0,0,0-.623-1.893l-1.062-1.011,1.516-.215a2.109,2.109,0,0,0,1.586-1.137l.725-1.434.725,1.434a2.109,2.109,0,0,0,1.586,1.137l1.516.215Z" transform="translate(-361.999 -91)" fill="#0f6671" stroke="#95dde6" stroke-width="1.5"/>
      </g>
    </g>
    <g id="Group_5276" data-name="Group 5276" transform="translate(0 12.797)">
      <g id="Group_5275" data-name="Group 5275">
        <path id="Path_6067" data-name="Path 6067" d="M20.994,98.451a2.109,2.109,0,0,0-1.713-1.445l-4.74-.673L12.43,92.158a2.109,2.109,0,0,0-3.765,0L6.554,96.334l-4.74.673a2.109,2.109,0,0,0-1.158,3.616l3.4,3.236-.8,4.556A2.109,2.109,0,0,0,6.3,110.656l4.251-2.182,4.251,2.182a2.109,2.109,0,0,0,3.041-2.242l-.8-4.556,3.4-3.236a2.109,2.109,0,0,0,.551-2.171Zm-7.682,3.13a2.109,2.109,0,0,0-.623,1.893l.262,1.49-1.44-.739a2.109,2.109,0,0,0-1.927,0l-1.44.739.262-1.49a2.109,2.109,0,0,0-.623-1.893l-1.063-1.01,1.516-.215a2.11,2.11,0,0,0,1.586-1.137l.725-1.434.725,1.434a2.109,2.109,0,0,0,1.586,1.137l1.516.215Z" transform="translate(0 -91)" fill="#0f6671" stroke="#95dde6" stroke-width="1.5"/>
      </g>
    </g>
    <g id="Group_5278" data-name="Group 5278" transform="translate(17.016 23.344)">
      <g id="Group_5277" data-name="Group 5277">
        <path id="Path_6068" data-name="Path 6068" d="M147.657,188.715a12.656,12.656,0,1,0-15.344,0A19.011,19.011,0,0,0,121,206.078v6.469a2.109,2.109,0,0,0,2.109,2.109h33.75a2.109,2.109,0,0,0,2.109-2.109v-6.469a19.011,19.011,0,0,0-11.311-17.363Zm-16.109-10.059a8.437,8.437,0,1,1,8.437,8.437,8.437,8.437,0,0,1-8.437-8.437Zm23.2,31.781H125.22v-4.359a14.766,14.766,0,1,1,29.532,0Z" transform="translate(-121.001 -166)" fill="#0f6671" stroke="#95dde6" stroke-width="1.5"/>
      </g>
    </g>
  </g>
</svg>
