<svg xmlns="http://www.w3.org/2000/svg" width="86.021" height="61.767" viewBox="0 0 86.021 61.767">
  <g id="winner_1_" data-name="winner (1)" transform="translate(0.253 -72.376)">
    <g id="Group_5295" data-name="Group 5295" transform="translate(0 72.63)">
      <path id="Path_6115" data-name="Path 6115" d="M83.537,98.78a1.6,1.6,0,0,0-1.915.18c-1.281,1.154-2.58,2.219-3.92,3.22q.418-1.4.73-2.743a13.407,13.407,0,0,0,5.518-6.474A20.228,20.228,0,0,0,85.489,84.1a1.609,1.609,0,0,0-3-.718c-.869,1.512-1.787,2.943-2.768,4.321-.012-1.163-.066-2.292-.161-3.381v-.076a51.572,51.572,0,0,0-1.97-10.714,1.256,1.256,0,1,0-2.409.711A49.462,49.462,0,0,1,76.636,80.8c-1.243-1.192-2.524-2.31-3.869-3.372a1.611,1.611,0,0,0-2.553,1.685A30.206,30.206,0,0,0,77.064,92q-.106,1.368-.313,2.807c-.829-1.451-1.712-2.842-2.669-4.2a1.61,1.61,0,0,0-2.924.859,28.5,28.5,0,0,0,2.75,13.99q-.493,1.244-1.1,2.526c-.373-1.62-.817-3.2-1.342-4.758a1.612,1.612,0,0,0-1.515-1.1h-.013a1.608,1.608,0,0,0-1.516,1.07,28.258,28.258,0,0,0-1.413,14.11q-.839,1.056-1.795,2.113a49.46,49.46,0,0,0,.113-4.956,1.61,1.61,0,0,0-2.9-.913,29.264,29.264,0,0,0-5.564,13.1l-.338-.917a1.849,1.849,0,0,0-1.728-1.2H50.562a25.063,25.063,0,0,1-1.571-2.981,1.256,1.256,0,1,0-2.294,1.022q.45,1.01.964,1.96H37.854a34.476,34.476,0,0,0,3.491-10.612,8.087,8.087,0,0,0,2.828,0c.157.947.342,1.881.559,2.786a1.256,1.256,0,0,0,2.443-.585c-.235-.98-.432-1.994-.592-3.025a8.373,8.373,0,0,0,1.067-.668,21.446,21.446,0,0,0,3.5-3.238A15.453,15.453,0,0,0,65.3,93.78V89.534A1.834,1.834,0,0,0,63.468,87.7h0l-7.024.015v-.676a1.985,1.985,0,0,0,1.617-1.947V82.079A1.985,1.985,0,0,0,56.074,80.1H29.442a1.985,1.985,0,0,0-1.983,1.983V85.1a1.985,1.985,0,0,0,1.617,1.947v.676L22.052,87.7h0a1.834,1.834,0,0,0-1.834,1.834V93.78a15.453,15.453,0,0,0,14.155,15.413,21.451,21.451,0,0,0,3.5,3.238,8.38,8.38,0,0,0,1.068.668,31.137,31.137,0,0,1-3.98,11.436H30.829a1.849,1.849,0,0,0-1.728,1.2l-.376,1.019-.067-.046a29.236,29.236,0,0,0-5.572-13.157,1.61,1.61,0,0,0-2.9.913,49.509,49.509,0,0,0,.113,4.956q-.957-1.056-1.795-2.113a28.255,28.255,0,0,0-1.412-14.11,1.61,1.61,0,0,0-3.044.027c-.525,1.561-.968,3.138-1.342,4.757q-.6-1.28-1.1-2.526a28.5,28.5,0,0,0,2.75-13.99,1.61,1.61,0,0,0-2.924-.859c-.957,1.354-1.841,2.745-2.669,4.2Q8.555,93.368,8.451,92A30.206,30.206,0,0,0,15.3,79.114a1.611,1.611,0,0,0-2.553-1.685c-1.345,1.062-2.626,2.18-3.869,3.372a49.442,49.442,0,0,1,1.459-6.559,1.256,1.256,0,1,0-2.409-.711,51.563,51.563,0,0,0-1.97,10.714v.074c-.1,1.09-.149,2.219-.161,3.382-.98-1.379-1.9-2.809-2.768-4.321a1.609,1.609,0,0,0-3,.72,20.225,20.225,0,0,0,1.539,8.865,13.407,13.407,0,0,0,5.518,6.474q.313,1.346.73,2.743c-1.34-1-2.64-2.066-3.921-3.22a1.609,1.609,0,0,0-2.636,1.6c1.368,5.259,5.334,11,11.18,12.33q.688,1.19,1.488,2.4c-1.569-.564-3.12-1.2-4.68-1.923a1.609,1.609,0,0,0-2.051,2.3c2.707,4.415,7.815,8.574,13.483,8.574.268,0,.537-.011.807-.029a49.387,49.387,0,0,0,5.278,4.252h0c.347.244.7.485,1.069.724l-.82,2.223a1.842,1.842,0,0,0,1.728,2.48h28.15a1.842,1.842,0,0,0,1.728-2.48l-.842-2.282c.332-.22.66-.441.979-.665h0a49.406,49.406,0,0,0,5.278-4.251q.4.029.807.029c5.668,0,10.776-4.159,13.483-8.574a1.609,1.609,0,0,0-2.051-2.3c-1.56.724-3.11,1.36-4.68,1.923q.8-1.206,1.488-2.4c5.846-1.324,9.812-7.071,11.18-12.33a1.6,1.6,0,0,0-.721-1.783Zm-4.346-3.317q.038-.248.073-.5c.02-.145.04-.29.059-.434.021-.163.042-.325.062-.487q.026-.216.05-.43.027-.24.051-.478.021-.212.04-.423.022-.238.04-.473c.006-.073.013-.147.019-.219a53.919,53.919,0,0,0,3.248-4.416,14.317,14.317,0,0,1-3.681,8.133C79.164,95.648,79.176,95.556,79.191,95.463Zm-22.752-.424V90.226l6.351-.014V93.78a12.956,12.956,0,0,1-9.519,12.5,21.644,21.644,0,0,0,3.168-11.241Zm-29.147,8.623a12.956,12.956,0,0,1-4.567-9.881V90.212l6.351.014v4.813a21.644,21.644,0,0,0,3.168,11.241,12.882,12.882,0,0,1-4.952-2.619Zm4.3-8.623V87.073h1.639a1.256,1.256,0,1,0,0-2.512h-3.26V82.608H55.544v1.953H39.069a1.256,1.256,0,0,0,0,2.512H53.927v7.965a19.162,19.162,0,0,1-7.767,15.37,5.71,5.71,0,0,1-6.805,0,19.162,19.162,0,0,1-7.768-15.369Zm-28.9-7.431A53.9,53.9,0,0,0,5.94,92.024c.006.074.013.149.019.223q.018.233.04.468.019.211.04.424.024.239.051.479c.016.142.032.285.049.429q.029.243.062.488.028.215.058.432c.023.166.048.333.073.5.014.092.026.182.04.274a14.317,14.317,0,0,1-3.688-8.133Zm9.145,6.954a26.308,26.308,0,0,1-1.45,7.415l-.063-.2q-.063-.2-.124-.409t-.12-.411q-.058-.2-.114-.406l-.11-.406q-.054-.2-.1-.4t-.1-.4q-.049-.2-.1-.4c-.015-.062-.028-.124-.043-.186a47.658,47.658,0,0,1,2.316-4.2ZM8.31,87.6q0-.218.008-.434t.012-.438q.007-.214.016-.427t.021-.43q.011-.21.024-.419t.029-.425c.005-.068.011-.136.016-.2,1.14-1.225,2.3-2.366,3.506-3.442a27.808,27.808,0,0,1-3.636,6.882c0-.074,0-.147,0-.221Q8.307,87.823,8.31,87.6ZM4.829,103.05c1.412,1.13,2.861,2.178,4.375,3.166.026.066.054.133.08.2q.085.214.173.43.079.194.161.388.091.217.186.435.084.2.171.391l.2.438c.06.131.12.263.182.395s.138.293.209.44c.039.082.077.164.117.247a14.144,14.144,0,0,1-5.854-6.53Zm10.737,3.821a25.944,25.944,0,0,1,.75,7.468l-.117-.173q-.118-.175-.234-.351t-.234-.359q-.114-.176-.225-.352l-.224-.358q-.108-.174-.213-.347t-.217-.362l-.2-.336-.1-.173C14.826,109.926,15.161,108.382,15.566,106.871Zm-4.24,10.119c1.678.665,3.366,1.244,5.1,1.748.042.054.087.107.13.161l.3.378.26.317.312.372.274.32c.107.124.215.247.325.371q.14.159.283.318.17.189.343.377c.059.064.116.128.175.193a14.21,14.21,0,0,1-7.5-4.554ZM25.5,124.366l-.335-.273-.331-.275-.33-.279-.318-.275-.32-.282-.306-.276-.307-.282-.143-.135c-.217-1.622-.352-3.205-.408-4.778A26.961,26.961,0,0,1,25.67,124.5Zm4.2,7.006,1.6-4.325H54.331l1.6,4.325Zm32.7-9.083-.147.138-.3.276q-.151.138-.311.281t-.317.279l-.32.276-.329.278-.332.276-.334.272-.168.134a26.958,26.958,0,0,1,2.966-6.989,47.589,47.589,0,0,1-.408,4.779Zm7.546-15.418c.406,1.511.741,3.054,1.012,4.659l-.1.169-.2.343q-.1.172-.216.359-.1.173-.212.346t-.227.361q-.11.173-.222.346t-.238.364q-.114.173-.231.347l-.118.174a25.94,25.94,0,0,1,.754-7.468Zm4.241,10.119a14.206,14.206,0,0,1-7.5,4.554c.065-.07.127-.14.191-.209l.32-.351q.159-.175.3-.338l.307-.351q.152-.175.29-.339l.3-.352q.151-.176.277-.337.145-.178.286-.356c.046-.057.094-.115.139-.173,1.725-.5,3.414-1.082,5.092-1.747ZM73.57,81.384c1.205,1.076,2.366,2.217,3.506,3.442.006.069.011.138.017.207q.016.208.029.419t.025.421q.011.214.021.429t.016.427q.007.218.012.437t.008.434v.665a27.808,27.808,0,0,1-3.632-6.881Zm.114,13.177c.829,1.339,1.6,2.729,2.325,4.195-.014.062-.028.124-.043.186q-.046.2-.1.4t-.1.4q-.051.2-.1.4t-.111.409q-.056.2-.113.4t-.121.414l-.123.407c-.021.068-.042.136-.064.2a26.3,26.3,0,0,1-1.448-7.411Zm1.148,15.018c.04-.082.077-.164.116-.246.071-.148.141-.3.21-.443s.12-.26.179-.389l.2-.443q.086-.194.169-.386.1-.219.187-.438l.16-.386q.088-.216.174-.431c.026-.066.054-.133.08-.2,1.514-.988,2.963-2.037,4.375-3.166a14.146,14.146,0,0,1-5.848,6.528Z" transform="translate(0 -72.63)" fill="#0f6671" stroke="#95dde6" stroke-width="0.5"/>
    </g>
  </g>
</svg>
