<svg xmlns="http://www.w3.org/2000/svg" width="72.5" height="72.5" viewBox="0 0 72.5 72.5">
  <g id="workers" transform="translate(0.25 0.25)">
    <g id="Group_5280" data-name="Group 5280">
      <g id="Group_5279" data-name="Group 5279">
        <path id="Path_6076" data-name="Path 6076" d="M63.848,20.969a6.507,6.507,0,0,0,1.471-4.126V15.56a6.538,6.538,0,1,0-13.076,0v1.283a6.506,6.506,0,0,0,1.472,4.127,11.146,11.146,0,0,0-3.158,1.43V21.38a7.7,7.7,0,0,0-7.7-7.7h-.908A7.644,7.644,0,0,0,43.7,8.82V7.68a7.68,7.68,0,1,0-15.36,0V8.82a7.644,7.644,0,0,0,1.744,4.867h-.908a7.7,7.7,0,0,0-7.7,7.7v1.044a11.145,11.145,0,0,0-3.194-1.457,6.507,6.507,0,0,0,1.472-4.127V15.56a6.538,6.538,0,0,0-13.076,0v1.283A6.507,6.507,0,0,0,8.15,20.969,11.116,11.116,0,0,0,0,31.667v11.51a4.44,4.44,0,0,0,4.435,4.435h1.18V70.594A1.406,1.406,0,0,0,7.021,72H19.4a1.406,1.406,0,0,0,1.4-1.406V47.612H22A4.44,4.44,0,0,0,26.437,43.2a7.625,7.625,0,0,0,1.425.391v27A1.406,1.406,0,0,0,29.268,72h13.5a1.406,1.406,0,0,0,1.406-1.406V56.96a1.406,1.406,0,1,0-2.812,0V69.187H37.424V45.465a1.406,1.406,0,0,0-2.812,0V69.187H30.674V39.312H41.362v6.773a1.406,1.406,0,0,0,2.812,0V43.591a7.63,7.63,0,0,0,1.389-.377A4.44,4.44,0,0,0,50,47.612h1.2V70.594A1.406,1.406,0,0,0,52.6,72H64.979a1.406,1.406,0,0,0,1.406-1.406V47.612h1.18A4.44,4.44,0,0,0,72,43.177V31.667a11.117,11.117,0,0,0-8.152-10.7ZM9.493,15.56a3.726,3.726,0,1,1,7.451,0v1.283a3.726,3.726,0,1,1-7.452,0Zm8.5,53.627H14.624V47.531a1.406,1.406,0,0,0-2.812,0v1.477a1.409,1.409,0,0,0-.018.211V69.187H8.427V42.046H17.99Zm5.635-26.011A1.624,1.624,0,0,1,22,44.8H20.8V37.314a1.406,1.406,0,1,0-2.812,0v1.919H8.427v-6.4a1.406,1.406,0,0,0-2.812,0V44.8H4.435a1.625,1.625,0,0,1-1.623-1.623V31.667A8.3,8.3,0,0,1,11.1,23.381h4.24a8.3,8.3,0,0,1,6.138,2.72h0V36.01a7.667,7.667,0,0,0,2.146,5.323v1.843ZM36.018,2.812A4.873,4.873,0,0,1,40.885,7.68V8.82a4.867,4.867,0,1,1-9.734,0V7.68h0a4.873,4.873,0,0,1,4.867-4.868Zm11.726,33.2a4.89,4.89,0,0,1-3.57,4.7V21.383a1.406,1.406,0,0,0-2.812,0V36.5H30.674V21.383a1.406,1.406,0,1,0-2.812,0V40.712a4.89,4.89,0,0,1-3.57-4.7V21.383A4.888,4.888,0,0,1,29.174,16.5h5.391v3.843a1.406,1.406,0,1,0,2.812,0V16.5h5.484a4.888,4.888,0,0,1,4.883,4.883Zm7.311-20.45a3.726,3.726,0,1,1,7.451,0v1.283a3.726,3.726,0,1,1-7.452,0Zm8.517,53.627H60.206V49.219a1.41,1.41,0,0,0-.018-.211V47.531a1.406,1.406,0,0,0-2.812,0V69.187H54.01V42.046h9.562ZM67.565,44.8h-1.18V32.838a1.406,1.406,0,1,0-2.812,0v6.4H54.01V37.314a1.406,1.406,0,1,0-2.812,0V44.8H50a1.625,1.625,0,0,1-1.623-1.623V41.371a7.667,7.667,0,0,0,2.182-5.361V26.065a8.3,8.3,0,0,1,6.1-2.684H60.9a8.3,8.3,0,0,1,8.286,8.286v11.51h0A1.625,1.625,0,0,1,67.565,44.8Z" fill="#0f6671" stroke="#95dde6" stroke-width="0.5"/>
      </g>
    </g>
    <g id="Group_5282" data-name="Group 5282" transform="translate(41.362 50.023)">
      <g id="Group_5281" data-name="Group 5281">
        <path id="Path_6077" data-name="Path 6077" d="M296.53,356.132a1.405,1.405,0,1,0,.412.994,1.405,1.405,0,0,0-.412-.994Z" transform="translate(-294.13 -355.72)" fill="#0f6671" stroke="#95dde6" stroke-width="0.5"/>
      </g>
    </g>
    <g id="Group_5284" data-name="Group 5284" transform="translate(34.564 24.192)">
      <g id="Group_5283" data-name="Group 5283">
        <path id="Path_6078" data-name="Path 6078" d="M248.19,172.442a1.405,1.405,0,1,0,.412.994,1.4,1.4,0,0,0-.412-.994Z" transform="translate(-245.79 -172.03)" fill="#0f6671" stroke="#95dde6" stroke-width="0.5"/>
      </g>
    </g>
  </g>
</svg>
