<svg xmlns="http://www.w3.org/2000/svg" width="71.998" height="67.999" viewBox="0 0 71.998 67.999">
  <g id="world-grid" transform="translate(0 -14.073)">
    <g id="Group_5259" data-name="Group 5259" transform="translate(17.199 14.073)">
      <g id="Group_5258" data-name="Group 5258">
        <path id="Path_6059" data-name="Path 6059" d="M141.114,14.073a18.794,18.794,0,1,0,18.806,18.8,18.794,18.794,0,0,0-18.806-18.8Zm-5.726,3.118a17.889,17.889,0,0,0-2.927,5.474,20.127,20.127,0,0,1-3.386-1.35,16.744,16.744,0,0,1,6.314-4.124Zm-7.7,5.769a21.793,21.793,0,0,0,4.17,1.72,32.455,32.455,0,0,0-.972,7.133h-6.433a16.5,16.5,0,0,1,3.233-8.853Zm0,19.813a16.586,16.586,0,0,1-3.235-8.853h6.433a32.456,32.456,0,0,0,.972,7.133,21.809,21.809,0,0,0-4.172,1.72Zm1.39,1.645a20.124,20.124,0,0,1,3.386-1.35,17.886,17.886,0,0,0,2.929,5.475,16.741,16.741,0,0,1-6.317-4.125Zm10.984,4.989c-2.747-.766-4.578-4.184-5.529-6.872a31.153,31.153,0,0,1,5.529-.656Zm0-9.636a33.162,33.162,0,0,0-6.144.747,30.3,30.3,0,0,1-.922-6.6h7.066Zm0-7.957H133a30.3,30.3,0,0,1,.922-6.6,33.144,33.144,0,0,0,6.144.747Zm0-7.96a31.162,31.162,0,0,1-5.529-.656c.948-2.675,2.8-6.108,5.529-6.872Zm14.482-.894a16.481,16.481,0,0,1,3.235,8.853h-6.433a32.459,32.459,0,0,0-.972-7.133,21.792,21.792,0,0,0,4.168-1.72Zm-1.389-1.645a20.1,20.1,0,0,1-3.386,1.35,17.8,17.8,0,0,0-2.927-5.474,16.738,16.738,0,0,1,6.311,4.124Zm-10.984-4.989c2.246.626,4.235,3.217,5.529,6.872a31.154,31.154,0,0,1-5.529.656Zm0,9.636a33.166,33.166,0,0,0,6.144-.747,30.351,30.351,0,0,1,.922,6.6h-7.066Zm0,7.957h7.066a30.351,30.351,0,0,1-.922,6.6,33.145,33.145,0,0,0-6.144-.747Zm0,15.487V41.879a31.163,31.163,0,0,1,5.529.656c-1.3,3.655-3.286,6.245-5.532,6.872Zm4.67-.863a17.808,17.808,0,0,0,2.928-5.475,20.119,20.119,0,0,1,3.386,1.35,16.748,16.748,0,0,1-6.316,4.125Zm3.534-7.49a32.449,32.449,0,0,0,.972-7.133h6.433a16.589,16.589,0,0,1-3.235,8.853,21.787,21.787,0,0,0-4.173-1.72Z" transform="translate(-122.309 -14.073)" fill="#54aab4"/>
      </g>
    </g>
    <g id="Group_5261" data-name="Group 5261" transform="translate(36.923 31.47)">
      <g id="Group_5260" data-name="Group 5260">
        <path id="Path_6060" data-name="Path 6060" d="M291.418,138.96a3.986,3.986,0,0,0-6.712,3.172l.608,8.422a3.956,3.956,0,0,0,.206,1l-.134.321a3.707,3.707,0,0,0-3.874.015c-1.089.607-2.022,1.124-2.826,1.569-4.124,2.282-5,2.766-6.067,4.034l-.029.034c-3.411,4.228-4.161,5.228-4.976,8.251a42.882,42.882,0,0,0-1.249,6.85l-.571-.042a2.224,2.224,0,0,0-2.382,2.055l-.837,11.42a2.239,2.239,0,0,0,2.233,2.4H280.26a2.263,2.263,0,0,0,2.249-2.089l.171-2.331a1.054,1.054,0,0,0-2.1-.154l-.171,2.331a.147.147,0,0,1-.146.136H264.806a.131.131,0,0,1-.13-.14l.837-11.42a.116.116,0,0,1,.125-.108l15.413,1.129a.117.117,0,0,1,.108.125l-.222,3.032a1.054,1.054,0,0,0,2.1.154l.222-3.032a2.227,2.227,0,0,0-2.057-2.38l-.532-.039.053-.729a4.771,4.771,0,0,1,.97-2.55c1.208-1.583,1.4-1.5,7.49-4.9a8.281,8.281,0,0,0,3.787-5.237c.012-.045,4.523-16.621,4.533-16.667C298.5,138.909,293.924,137.092,291.418,138.96Zm-1.342,1.642-2.869,6.9-.4-5.524a1.875,1.875,0,0,1,3.269-1.378Zm5.373,2.535c-.012.045-4.522,16.617-4.532,16.663a6.211,6.211,0,0,1-2.781,3.876c-6.093,3.4-6.606,3.468-8.116,5.447a6.87,6.87,0,0,0-1.4,3.674l-.053.729-10.1-.74a40.781,40.781,0,0,1,1.181-6.456c.686-2.546,1.162-3.238,4.567-7.458.8-.987,1.8-1.522,5.491-3.567.806-.446,1.741-.963,2.832-1.572a1.649,1.649,0,0,1,2.37.543,1.147,1.147,0,0,1-.268,1.65c-1.7,1.291-5.75,4.381-5.791,4.412a1.054,1.054,0,1,0,1.28,1.674c.041-.031,4.082-3.118,5.784-4.407a3.193,3.193,0,0,0,1.03-3.983c4.869-11.693,4.692-11.259,4.732-11.382.411-1.282,1.159-2.144,2.466-1.84,1.659.467,1.4,2.3,1.308,2.737Z" transform="translate(-262.568 -137.864)" fill="#54aab4"/>
      </g>
    </g>
    <g id="Group_5263" data-name="Group 5263" transform="translate(0 31.47)">
      <g id="Group_5262" data-name="Group 5262">
        <path id="Path_6061" data-name="Path 6061" d="M35.07,186.065l-.837-11.42a2.224,2.224,0,0,0-2.382-2.055l-.571.042a42.9,42.9,0,0,0-1.249-6.85c-.815-3.023-1.565-4.023-4.976-8.251-1.22-1.513-2.546-2.081-8.922-5.637a3.707,3.707,0,0,0-3.874-.016l-.134-.321c.227-.66.146-.177.814-9.425a3.986,3.986,0,0,0-6.712-3.172c-2.505-1.867-7.079-.051-6.089,4.64.01.046,4.521,16.621,4.533,16.666A8.3,8.3,0,0,0,8.458,165.5c6.092,3.4,6.282,3.315,7.49,4.9a5.353,5.353,0,0,1,1.03,3.279l-.539.039a2.227,2.227,0,0,0-2.056,2.38l.753,10.278a2.263,2.263,0,0,0,2.249,2.089h4.634a1.053,1.053,0,0,0,0-2.107H17.384a.147.147,0,0,1-.146-.136l-.753-10.279a.117.117,0,0,1,.108-.125l15.413-1.129a.115.115,0,0,1,.085.028.113.113,0,0,1,.04.08l.837,11.42a.131.131,0,0,1-.13.14h-5.9a1.053,1.053,0,1,0,0,2.107h5.9a2.24,2.24,0,0,0,2.232-2.4ZM10.835,141.98l-.4,5.524c-3.2-7.676-2.634-6.443-2.869-6.9a1.876,1.876,0,0,1,3.269,1.376Zm8.244,31.545a7.406,7.406,0,0,0-1.456-4.4c-1.511-1.98-2.026-2.051-8.116-5.447a6.219,6.219,0,0,1-2.784-3.887.241.241,0,0,0-.012-.05l-4.517-16.6c-.087-.435-.349-2.271,1.308-2.737a1.707,1.707,0,0,1,1.96.78c.217.313-.295-.846,5.238,12.441a3.193,3.193,0,0,0,1.03,3.983c1.7,1.289,5.743,4.376,5.784,4.407a1.054,1.054,0,1,0,1.28-1.674c-.041-.031-4.086-3.12-5.791-4.412-.927-.7-.447-1.773.388-2.271a1.593,1.593,0,0,1,1.713.079c6.484,3.616,7.326,3.949,8.321,5.136C27.063,163.2,27.451,164.3,28,166.33a40.771,40.771,0,0,1,1.182,6.456Z" transform="translate(0 -137.863)" fill="#54aab4"/>
      </g>
    </g>
  </g>
</svg>
