<svg xmlns="http://www.w3.org/2000/svg" width="72" height="56.007" viewBox="0 0 72 56.007">
  <g id="worldwide" transform="translate(-0.001 -56.157)">
    <g id="Group_5264" data-name="Group 5264" transform="translate(0 56.166)">
      <path id="Path_6062" data-name="Path 6062" d="M71.824,95.236a1.057,1.057,0,0,0-.993-.463l-6.306.688a1.051,1.051,0,1,0,.229,2.089l3.009-.328c-2.433,1.1-6.737,1.47-12.135,1.017-1.555-.131-3.189-.328-4.881-.587a43.125,43.125,0,0,0,2.042-12.435h9.15a25.6,25.6,0,0,1-2.014,9.018,1.054,1.054,0,1,0,1.943.818,27.653,27.653,0,0,0,2.049-7.938,21.928,21.928,0,0,1,5,4.879,1.053,1.053,0,1,0,1.754-1.167,25.793,25.793,0,0,0-6.611-6.2c0-.151.006-.3.006-.455a28.112,28.112,0,0,0-50.9-16.358,26.155,26.155,0,0,0-8.808.978l.814-1.386a1.054,1.054,0,0,0-1.821-1.062L.145,71.8a1.051,1.051,0,0,0,.91,1.582h.091l6.32-.546a1.051,1.051,0,1,0-.182-2.094l-2.811.243A20.783,20.783,0,0,1,11.791,69.9a27.8,27.8,0,0,0-3.246,8.133,1.055,1.055,0,0,0,2.059.458,25.81,25.81,0,0,1,4.244-9.412q3.134.838,6.407,1.414a43.024,43.024,0,0,0-2.1,12.619h-8.4c-3.763-2.439-6.5-4.849-7.834-6.927a1.054,1.054,0,0,0-1.776,1.133,25.292,25.292,0,0,0,6.733,6.393c0,.151-.006.3-.006.452a28.121,28.121,0,0,0,50.914,16.348c.369.009.733.014,1.089.014A24.925,24.925,0,0,0,67.688,99.5l-.741,1.329a1.054,1.054,0,0,0,1.844,1.02l3.08-5.526A1.048,1.048,0,0,0,71.824,95.236ZM16.267,67.281A25.845,25.845,0,0,1,27.875,59.56,21.194,21.194,0,0,0,23.9,64.581a30.028,30.028,0,0,0-1.909,3.91Q19.076,67.992,16.267,67.281ZM19.15,85.217q.029,1.317.129,2.61c-1.767-.846-3.45-1.719-5.035-2.61Zm-4.3,14.032A25.686,25.686,0,0,1,10,85.217h.131q1.105.7,2.316,1.4c2.182,1.26,4.56,2.485,7.086,3.655a40.678,40.678,0,0,0,1.72,7.565q-3.266.574-6.4,1.412Zm1.422,1.8q2.8-.711,5.718-1.206a30.052,30.052,0,0,0,1.909,3.91,21.185,21.185,0,0,0,3.979,5.027,26.078,26.078,0,0,1-11.6-7.732ZM21.816,91.3c3.3,1.435,6.814,2.775,10.46,3.978q1.327.438,2.64.84V96.6a85.02,85.02,0,0,0-11.553.9,37.536,37.536,0,0,1-1.547-6.2Zm13.1,18.7c-3.434-.435-6.665-2.99-9.191-7.3a27.659,27.659,0,0,1-1.59-3.186,83.105,83.105,0,0,1,10.78-.807Zm0-16.083q-.988-.308-1.976-.634a119.169,119.169,0,0,1-11.45-4.43c-.124-1.192-.2-2.407-.229-3.636H34.915Zm0-10.8H21.26a40.663,40.663,0,0,1,2.1-12.276,85.035,85.035,0,0,0,11.553.9v11.38Zm0-13.482a83.12,83.12,0,0,1-10.78-.807,27.66,27.66,0,0,1,1.59-3.186c2.526-4.315,5.756-6.869,9.191-7.3Zm22.143-.589A25.689,25.689,0,0,1,61.94,83.117H52.79a43.005,43.005,0,0,0-2.112-12.648q3.256-.582,6.38-1.424Zm-1.425-1.8q-2.792.715-5.7,1.215a29.989,29.989,0,0,0-1.9-3.882,21.189,21.189,0,0,0-3.979-5.027,26.075,26.075,0,0,1,11.578,7.7Zm-18.61-8.911c3.434.435,6.665,2.99,9.191,7.3a27.648,27.648,0,0,1,1.58,3.164,82.98,82.98,0,0,1-10.77.829Zm0,13.4h0a84.884,84.884,0,0,0,11.544-.92,40.641,40.641,0,0,1,2.111,12.3H37.024Zm0,13.483H50.679A40.782,40.782,0,0,1,48.642,97.3a111.028,111.028,0,0,1-11.617-2.753v-9.33Zm0,24.78V98.7a82.956,82.956,0,0,1,10.77.829,27.658,27.658,0,0,1-1.58,3.164c-2.525,4.314-5.755,6.869-9.189,7.307Zm7.043-1.227a21.2,21.2,0,0,0,3.97-5.019,30.043,30.043,0,0,0,1.9-3.882q2.908.5,5.708,1.218a26.056,26.056,0,0,1-11.577,7.682Z" transform="translate(0 -56.166)" fill="#0f6671"/>
    </g>
  </g>
</svg>
