<svg xmlns="http://www.w3.org/2000/svg" width="24" height="18.264" viewBox="0 0 24 18.264">
  <g id="envelope" transform="translate(0 -57.75)">
    <g id="Group_1600" data-name="Group 1600" transform="translate(0 57.75)">
      <path id="Path_2341" data-name="Path 2341" d="M21.07,57.75H2.935A2.937,2.937,0,0,0,0,60.685V73.08a2.937,2.937,0,0,0,2.935,2.935h18.13A2.937,2.937,0,0,0,24,73.08V60.69A2.934,2.934,0,0,0,21.07,57.75Zm1.594,15.33a1.6,1.6,0,0,1-1.594,1.594H2.935A1.6,1.6,0,0,1,1.341,73.08V60.69A1.6,1.6,0,0,1,2.935,59.1h18.13a1.6,1.6,0,0,1,1.594,1.594V73.08Z" transform="translate(0 -57.75)" fill="#fff"/>
      <path id="Path_2342" data-name="Path 2342" d="M68.12,115.34l5.87-5.264a.672.672,0,1,0-.9-1L65,116.344l-1.579-1.41s-.01-.01-.01-.015a.994.994,0,0,0-.109-.094l-6.426-5.75a.672.672,0,1,0-.894,1l5.939,5.309L56,120.922a.673.673,0,0,0-.03.948.686.686,0,0,0,.492.214.672.672,0,0,0,.457-.179l6-5.616,1.629,1.455a.669.669,0,0,0,.894,0l1.673-1.5,5.969,5.671a.672.672,0,0,0,.948-.025.673.673,0,0,0-.025-.948Z" transform="translate(-52.984 -106.362)" fill="#fff"/>
    </g>
  </g>
</svg>
