<svg xmlns="http://www.w3.org/2000/svg" width="24" height="24" viewBox="0 0 24 24">
  <g id="phone-call" transform="translate(-0.344 0)">
    <g id="Group_2" data-name="Group 2" transform="translate(0.344 0)">
      <path id="Path_27" data-name="Path 27" d="M19.322,40.885a2.365,2.365,0,0,0-1.715-.785,2.446,2.446,0,0,0-1.735.78l-1.6,1.6c-.132-.071-.264-.137-.391-.2-.183-.091-.355-.177-.5-.268a17.414,17.414,0,0,1-4.175-3.8,10.261,10.261,0,0,1-1.37-2.158c.416-.38.8-.775,1.177-1.155.142-.142.284-.289.426-.431a2.322,2.322,0,0,0,0-3.505L8.051,29.574c-.157-.157-.32-.319-.472-.481-.3-.314-.624-.638-.954-.942a2.4,2.4,0,0,0-1.7-.745,2.487,2.487,0,0,0-1.725.745l-.01.01L1.466,29.9a3.7,3.7,0,0,0-1.1,2.355,8.868,8.868,0,0,0,.649,3.758A21.8,21.8,0,0,0,4.9,42.475a23.867,23.867,0,0,0,7.949,6.215,12.4,12.4,0,0,0,4.464,1.317c.107.005.218.01.32.01a3.825,3.825,0,0,0,2.927-1.256c.005-.01.015-.015.02-.025a11.523,11.523,0,0,1,.888-.917c.218-.208.441-.425.659-.653a2.525,2.525,0,0,0,.766-1.753,2.433,2.433,0,0,0-.781-1.737Zm1.816,5.334c-.005,0-.005.005,0,0-.2.213-.4.405-.619.618a13.325,13.325,0,0,0-.979,1.013,2.447,2.447,0,0,1-1.907.805c-.076,0-.157,0-.233-.005a11.014,11.014,0,0,1-3.957-1.185,22.529,22.529,0,0,1-7.487-5.856A20.558,20.558,0,0,1,2.3,35.536a7.223,7.223,0,0,1-.568-3.171,2.324,2.324,0,0,1,.7-1.5l1.73-1.727a1.154,1.154,0,0,1,.771-.36,1.086,1.086,0,0,1,.741.355l.015.015c.309.289.6.588.913.907.157.162.32.324.482.491l1.385,1.383a.966.966,0,0,1,0,1.57c-.147.147-.289.294-.436.436-.426.436-.832.841-1.273,1.236-.01.01-.02.015-.025.025a1.032,1.032,0,0,0-.264,1.15l.015.046a11.1,11.1,0,0,0,1.638,2.669l.005.005a18.609,18.609,0,0,0,4.5,4.093,6.929,6.929,0,0,0,.624.339c.183.091.355.177.5.268.02.01.041.025.061.035a1.1,1.1,0,0,0,.5.127,1.085,1.085,0,0,0,.771-.35l1.735-1.732a1.148,1.148,0,0,1,.766-.38,1.034,1.034,0,0,1,.73.37l.01.01,2.8,2.791A1,1,0,0,1,21.138,46.219Z" transform="translate(-0.344 -26.018)" fill="#cc3300"/>
      <path id="Path_28" data-name="Path 28" d="M245.507,87.282a6.524,6.524,0,0,1,5.316,5.309.68.68,0,0,0,.675.567.907.907,0,0,0,.117-.01.685.685,0,0,0,.563-.79,7.888,7.888,0,0,0-6.432-6.423.688.688,0,0,0-.791.557A.677.677,0,0,0,245.507,87.282Z" transform="translate(-232.536 -81.573)" fill="#cc3300"/>
      <path id="Path_29" data-name="Path 29" d="M260.163,10.587A12.989,12.989,0,0,0,249.571.011a.683.683,0,1,0-.223,1.347,11.6,11.6,0,0,1,9.466,9.452.68.68,0,0,0,.675.567.908.908,0,0,0,.117-.01A.671.671,0,0,0,260.163,10.587Z" transform="translate(-236.173 0)" fill="#cc3300"/>
    </g>
  </g>
</svg>
